%TF.GenerationSoftware,KiCad,Pcbnew,(5.1.10)-1*%
%TF.CreationDate,2021-09-26T04:03:23+09:00*%
%TF.ProjectId,HAS-CT-Board,4841532d-4354-42d4-926f-6172642e6b69,rev?*%
%TF.SameCoordinates,Original*%
%TF.FileFunction,Paste,Top*%
%TF.FilePolarity,Positive*%
%FSLAX46Y46*%
G04 Gerber Fmt 4.6, Leading zero omitted, Abs format (unit mm)*
G04 Created by KiCad (PCBNEW (5.1.10)-1) date 2021-09-26 04:03:23*
%MOMM*%
%LPD*%
G01*
G04 APERTURE LIST*
G04 APERTURE END LIST*
%TO.C,C5*%
G36*
G01*
X69675000Y-132750000D02*
X69675000Y-133250000D01*
G75*
G02*
X69450000Y-133475000I-225000J0D01*
G01*
X69000000Y-133475000D01*
G75*
G02*
X68775000Y-133250000I0J225000D01*
G01*
X68775000Y-132750000D01*
G75*
G02*
X69000000Y-132525000I225000J0D01*
G01*
X69450000Y-132525000D01*
G75*
G02*
X69675000Y-132750000I0J-225000D01*
G01*
G37*
G36*
G01*
X71225000Y-132750000D02*
X71225000Y-133250000D01*
G75*
G02*
X71000000Y-133475000I-225000J0D01*
G01*
X70550000Y-133475000D01*
G75*
G02*
X70325000Y-133250000I0J225000D01*
G01*
X70325000Y-132750000D01*
G75*
G02*
X70550000Y-132525000I225000J0D01*
G01*
X71000000Y-132525000D01*
G75*
G02*
X71225000Y-132750000I0J-225000D01*
G01*
G37*
%TD*%
%TO.C,C6*%
G36*
G01*
X99675000Y-132750000D02*
X99675000Y-133250000D01*
G75*
G02*
X99450000Y-133475000I-225000J0D01*
G01*
X99000000Y-133475000D01*
G75*
G02*
X98775000Y-133250000I0J225000D01*
G01*
X98775000Y-132750000D01*
G75*
G02*
X99000000Y-132525000I225000J0D01*
G01*
X99450000Y-132525000D01*
G75*
G02*
X99675000Y-132750000I0J-225000D01*
G01*
G37*
G36*
G01*
X101225000Y-132750000D02*
X101225000Y-133250000D01*
G75*
G02*
X101000000Y-133475000I-225000J0D01*
G01*
X100550000Y-133475000D01*
G75*
G02*
X100325000Y-133250000I0J225000D01*
G01*
X100325000Y-132750000D01*
G75*
G02*
X100550000Y-132525000I225000J0D01*
G01*
X101000000Y-132525000D01*
G75*
G02*
X101225000Y-132750000I0J-225000D01*
G01*
G37*
%TD*%
%TO.C,C7*%
G36*
G01*
X131225000Y-132750000D02*
X131225000Y-133250000D01*
G75*
G02*
X131000000Y-133475000I-225000J0D01*
G01*
X130550000Y-133475000D01*
G75*
G02*
X130325000Y-133250000I0J225000D01*
G01*
X130325000Y-132750000D01*
G75*
G02*
X130550000Y-132525000I225000J0D01*
G01*
X131000000Y-132525000D01*
G75*
G02*
X131225000Y-132750000I0J-225000D01*
G01*
G37*
G36*
G01*
X129675000Y-132750000D02*
X129675000Y-133250000D01*
G75*
G02*
X129450000Y-133475000I-225000J0D01*
G01*
X129000000Y-133475000D01*
G75*
G02*
X128775000Y-133250000I0J225000D01*
G01*
X128775000Y-132750000D01*
G75*
G02*
X129000000Y-132525000I225000J0D01*
G01*
X129450000Y-132525000D01*
G75*
G02*
X129675000Y-132750000I0J-225000D01*
G01*
G37*
%TD*%
%TO.C,C12*%
G36*
G01*
X66325000Y-112250000D02*
X66325000Y-111750000D01*
G75*
G02*
X66550000Y-111525000I225000J0D01*
G01*
X67000000Y-111525000D01*
G75*
G02*
X67225000Y-111750000I0J-225000D01*
G01*
X67225000Y-112250000D01*
G75*
G02*
X67000000Y-112475000I-225000J0D01*
G01*
X66550000Y-112475000D01*
G75*
G02*
X66325000Y-112250000I0J225000D01*
G01*
G37*
G36*
G01*
X64775000Y-112250000D02*
X64775000Y-111750000D01*
G75*
G02*
X65000000Y-111525000I225000J0D01*
G01*
X65450000Y-111525000D01*
G75*
G02*
X65675000Y-111750000I0J-225000D01*
G01*
X65675000Y-112250000D01*
G75*
G02*
X65450000Y-112475000I-225000J0D01*
G01*
X65000000Y-112475000D01*
G75*
G02*
X64775000Y-112250000I0J225000D01*
G01*
G37*
%TD*%
%TO.C,C13*%
G36*
G01*
X96325000Y-112250000D02*
X96325000Y-111750000D01*
G75*
G02*
X96550000Y-111525000I225000J0D01*
G01*
X97000000Y-111525000D01*
G75*
G02*
X97225000Y-111750000I0J-225000D01*
G01*
X97225000Y-112250000D01*
G75*
G02*
X97000000Y-112475000I-225000J0D01*
G01*
X96550000Y-112475000D01*
G75*
G02*
X96325000Y-112250000I0J225000D01*
G01*
G37*
G36*
G01*
X94775000Y-112250000D02*
X94775000Y-111750000D01*
G75*
G02*
X95000000Y-111525000I225000J0D01*
G01*
X95450000Y-111525000D01*
G75*
G02*
X95675000Y-111750000I0J-225000D01*
G01*
X95675000Y-112250000D01*
G75*
G02*
X95450000Y-112475000I-225000J0D01*
G01*
X95000000Y-112475000D01*
G75*
G02*
X94775000Y-112250000I0J225000D01*
G01*
G37*
%TD*%
%TO.C,C14*%
G36*
G01*
X124775000Y-112250000D02*
X124775000Y-111750000D01*
G75*
G02*
X125000000Y-111525000I225000J0D01*
G01*
X125450000Y-111525000D01*
G75*
G02*
X125675000Y-111750000I0J-225000D01*
G01*
X125675000Y-112250000D01*
G75*
G02*
X125450000Y-112475000I-225000J0D01*
G01*
X125000000Y-112475000D01*
G75*
G02*
X124775000Y-112250000I0J225000D01*
G01*
G37*
G36*
G01*
X126325000Y-112250000D02*
X126325000Y-111750000D01*
G75*
G02*
X126550000Y-111525000I225000J0D01*
G01*
X127000000Y-111525000D01*
G75*
G02*
X127225000Y-111750000I0J-225000D01*
G01*
X127225000Y-112250000D01*
G75*
G02*
X127000000Y-112475000I-225000J0D01*
G01*
X126550000Y-112475000D01*
G75*
G02*
X126325000Y-112250000I0J225000D01*
G01*
G37*
%TD*%
%TO.C,R1*%
G36*
G01*
X72425000Y-108275000D02*
X72425000Y-107725000D01*
G75*
G02*
X72625000Y-107525000I200000J0D01*
G01*
X73025000Y-107525000D01*
G75*
G02*
X73225000Y-107725000I0J-200000D01*
G01*
X73225000Y-108275000D01*
G75*
G02*
X73025000Y-108475000I-200000J0D01*
G01*
X72625000Y-108475000D01*
G75*
G02*
X72425000Y-108275000I0J200000D01*
G01*
G37*
G36*
G01*
X70775000Y-108275000D02*
X70775000Y-107725000D01*
G75*
G02*
X70975000Y-107525000I200000J0D01*
G01*
X71375000Y-107525000D01*
G75*
G02*
X71575000Y-107725000I0J-200000D01*
G01*
X71575000Y-108275000D01*
G75*
G02*
X71375000Y-108475000I-200000J0D01*
G01*
X70975000Y-108475000D01*
G75*
G02*
X70775000Y-108275000I0J200000D01*
G01*
G37*
%TD*%
%TO.C,R2*%
G36*
G01*
X102425000Y-108275000D02*
X102425000Y-107725000D01*
G75*
G02*
X102625000Y-107525000I200000J0D01*
G01*
X103025000Y-107525000D01*
G75*
G02*
X103225000Y-107725000I0J-200000D01*
G01*
X103225000Y-108275000D01*
G75*
G02*
X103025000Y-108475000I-200000J0D01*
G01*
X102625000Y-108475000D01*
G75*
G02*
X102425000Y-108275000I0J200000D01*
G01*
G37*
G36*
G01*
X100775000Y-108275000D02*
X100775000Y-107725000D01*
G75*
G02*
X100975000Y-107525000I200000J0D01*
G01*
X101375000Y-107525000D01*
G75*
G02*
X101575000Y-107725000I0J-200000D01*
G01*
X101575000Y-108275000D01*
G75*
G02*
X101375000Y-108475000I-200000J0D01*
G01*
X100975000Y-108475000D01*
G75*
G02*
X100775000Y-108275000I0J200000D01*
G01*
G37*
%TD*%
%TO.C,R3*%
G36*
G01*
X130775000Y-108275000D02*
X130775000Y-107725000D01*
G75*
G02*
X130975000Y-107525000I200000J0D01*
G01*
X131375000Y-107525000D01*
G75*
G02*
X131575000Y-107725000I0J-200000D01*
G01*
X131575000Y-108275000D01*
G75*
G02*
X131375000Y-108475000I-200000J0D01*
G01*
X130975000Y-108475000D01*
G75*
G02*
X130775000Y-108275000I0J200000D01*
G01*
G37*
G36*
G01*
X132425000Y-108275000D02*
X132425000Y-107725000D01*
G75*
G02*
X132625000Y-107525000I200000J0D01*
G01*
X133025000Y-107525000D01*
G75*
G02*
X133225000Y-107725000I0J-200000D01*
G01*
X133225000Y-108275000D01*
G75*
G02*
X133025000Y-108475000I-200000J0D01*
G01*
X132625000Y-108475000D01*
G75*
G02*
X132425000Y-108275000I0J200000D01*
G01*
G37*
%TD*%
%TO.C,R4*%
G36*
G01*
X65425000Y-136275000D02*
X65425000Y-135725000D01*
G75*
G02*
X65625000Y-135525000I200000J0D01*
G01*
X66025000Y-135525000D01*
G75*
G02*
X66225000Y-135725000I0J-200000D01*
G01*
X66225000Y-136275000D01*
G75*
G02*
X66025000Y-136475000I-200000J0D01*
G01*
X65625000Y-136475000D01*
G75*
G02*
X65425000Y-136275000I0J200000D01*
G01*
G37*
G36*
G01*
X63775000Y-136275000D02*
X63775000Y-135725000D01*
G75*
G02*
X63975000Y-135525000I200000J0D01*
G01*
X64375000Y-135525000D01*
G75*
G02*
X64575000Y-135725000I0J-200000D01*
G01*
X64575000Y-136275000D01*
G75*
G02*
X64375000Y-136475000I-200000J0D01*
G01*
X63975000Y-136475000D01*
G75*
G02*
X63775000Y-136275000I0J200000D01*
G01*
G37*
%TD*%
%TO.C,R5*%
G36*
G01*
X66225000Y-132725000D02*
X66225000Y-133275000D01*
G75*
G02*
X66025000Y-133475000I-200000J0D01*
G01*
X65625000Y-133475000D01*
G75*
G02*
X65425000Y-133275000I0J200000D01*
G01*
X65425000Y-132725000D01*
G75*
G02*
X65625000Y-132525000I200000J0D01*
G01*
X66025000Y-132525000D01*
G75*
G02*
X66225000Y-132725000I0J-200000D01*
G01*
G37*
G36*
G01*
X64575000Y-132725000D02*
X64575000Y-133275000D01*
G75*
G02*
X64375000Y-133475000I-200000J0D01*
G01*
X63975000Y-133475000D01*
G75*
G02*
X63775000Y-133275000I0J200000D01*
G01*
X63775000Y-132725000D01*
G75*
G02*
X63975000Y-132525000I200000J0D01*
G01*
X64375000Y-132525000D01*
G75*
G02*
X64575000Y-132725000I0J-200000D01*
G01*
G37*
%TD*%
%TO.C,R6*%
G36*
G01*
X93775000Y-136275000D02*
X93775000Y-135725000D01*
G75*
G02*
X93975000Y-135525000I200000J0D01*
G01*
X94375000Y-135525000D01*
G75*
G02*
X94575000Y-135725000I0J-200000D01*
G01*
X94575000Y-136275000D01*
G75*
G02*
X94375000Y-136475000I-200000J0D01*
G01*
X93975000Y-136475000D01*
G75*
G02*
X93775000Y-136275000I0J200000D01*
G01*
G37*
G36*
G01*
X95425000Y-136275000D02*
X95425000Y-135725000D01*
G75*
G02*
X95625000Y-135525000I200000J0D01*
G01*
X96025000Y-135525000D01*
G75*
G02*
X96225000Y-135725000I0J-200000D01*
G01*
X96225000Y-136275000D01*
G75*
G02*
X96025000Y-136475000I-200000J0D01*
G01*
X95625000Y-136475000D01*
G75*
G02*
X95425000Y-136275000I0J200000D01*
G01*
G37*
%TD*%
%TO.C,R7*%
G36*
G01*
X94575000Y-132725000D02*
X94575000Y-133275000D01*
G75*
G02*
X94375000Y-133475000I-200000J0D01*
G01*
X93975000Y-133475000D01*
G75*
G02*
X93775000Y-133275000I0J200000D01*
G01*
X93775000Y-132725000D01*
G75*
G02*
X93975000Y-132525000I200000J0D01*
G01*
X94375000Y-132525000D01*
G75*
G02*
X94575000Y-132725000I0J-200000D01*
G01*
G37*
G36*
G01*
X96225000Y-132725000D02*
X96225000Y-133275000D01*
G75*
G02*
X96025000Y-133475000I-200000J0D01*
G01*
X95625000Y-133475000D01*
G75*
G02*
X95425000Y-133275000I0J200000D01*
G01*
X95425000Y-132725000D01*
G75*
G02*
X95625000Y-132525000I200000J0D01*
G01*
X96025000Y-132525000D01*
G75*
G02*
X96225000Y-132725000I0J-200000D01*
G01*
G37*
%TD*%
%TO.C,R8*%
G36*
G01*
X125425000Y-136275000D02*
X125425000Y-135725000D01*
G75*
G02*
X125625000Y-135525000I200000J0D01*
G01*
X126025000Y-135525000D01*
G75*
G02*
X126225000Y-135725000I0J-200000D01*
G01*
X126225000Y-136275000D01*
G75*
G02*
X126025000Y-136475000I-200000J0D01*
G01*
X125625000Y-136475000D01*
G75*
G02*
X125425000Y-136275000I0J200000D01*
G01*
G37*
G36*
G01*
X123775000Y-136275000D02*
X123775000Y-135725000D01*
G75*
G02*
X123975000Y-135525000I200000J0D01*
G01*
X124375000Y-135525000D01*
G75*
G02*
X124575000Y-135725000I0J-200000D01*
G01*
X124575000Y-136275000D01*
G75*
G02*
X124375000Y-136475000I-200000J0D01*
G01*
X123975000Y-136475000D01*
G75*
G02*
X123775000Y-136275000I0J200000D01*
G01*
G37*
%TD*%
%TO.C,R9*%
G36*
G01*
X124575000Y-132725000D02*
X124575000Y-133275000D01*
G75*
G02*
X124375000Y-133475000I-200000J0D01*
G01*
X123975000Y-133475000D01*
G75*
G02*
X123775000Y-133275000I0J200000D01*
G01*
X123775000Y-132725000D01*
G75*
G02*
X123975000Y-132525000I200000J0D01*
G01*
X124375000Y-132525000D01*
G75*
G02*
X124575000Y-132725000I0J-200000D01*
G01*
G37*
G36*
G01*
X126225000Y-132725000D02*
X126225000Y-133275000D01*
G75*
G02*
X126025000Y-133475000I-200000J0D01*
G01*
X125625000Y-133475000D01*
G75*
G02*
X125425000Y-133275000I0J200000D01*
G01*
X125425000Y-132725000D01*
G75*
G02*
X125625000Y-132525000I200000J0D01*
G01*
X126025000Y-132525000D01*
G75*
G02*
X126225000Y-132725000I0J-200000D01*
G01*
G37*
%TD*%
%TO.C,R10*%
G36*
G01*
X62275000Y-119575000D02*
X61725000Y-119575000D01*
G75*
G02*
X61525000Y-119375000I0J200000D01*
G01*
X61525000Y-118975000D01*
G75*
G02*
X61725000Y-118775000I200000J0D01*
G01*
X62275000Y-118775000D01*
G75*
G02*
X62475000Y-118975000I0J-200000D01*
G01*
X62475000Y-119375000D01*
G75*
G02*
X62275000Y-119575000I-200000J0D01*
G01*
G37*
G36*
G01*
X62275000Y-121225000D02*
X61725000Y-121225000D01*
G75*
G02*
X61525000Y-121025000I0J200000D01*
G01*
X61525000Y-120625000D01*
G75*
G02*
X61725000Y-120425000I200000J0D01*
G01*
X62275000Y-120425000D01*
G75*
G02*
X62475000Y-120625000I0J-200000D01*
G01*
X62475000Y-121025000D01*
G75*
G02*
X62275000Y-121225000I-200000J0D01*
G01*
G37*
%TD*%
%TO.C,R11*%
G36*
G01*
X66225000Y-129725000D02*
X66225000Y-130275000D01*
G75*
G02*
X66025000Y-130475000I-200000J0D01*
G01*
X65625000Y-130475000D01*
G75*
G02*
X65425000Y-130275000I0J200000D01*
G01*
X65425000Y-129725000D01*
G75*
G02*
X65625000Y-129525000I200000J0D01*
G01*
X66025000Y-129525000D01*
G75*
G02*
X66225000Y-129725000I0J-200000D01*
G01*
G37*
G36*
G01*
X64575000Y-129725000D02*
X64575000Y-130275000D01*
G75*
G02*
X64375000Y-130475000I-200000J0D01*
G01*
X63975000Y-130475000D01*
G75*
G02*
X63775000Y-130275000I0J200000D01*
G01*
X63775000Y-129725000D01*
G75*
G02*
X63975000Y-129525000I200000J0D01*
G01*
X64375000Y-129525000D01*
G75*
G02*
X64575000Y-129725000I0J-200000D01*
G01*
G37*
%TD*%
%TO.C,R12*%
G36*
G01*
X92275000Y-119575000D02*
X91725000Y-119575000D01*
G75*
G02*
X91525000Y-119375000I0J200000D01*
G01*
X91525000Y-118975000D01*
G75*
G02*
X91725000Y-118775000I200000J0D01*
G01*
X92275000Y-118775000D01*
G75*
G02*
X92475000Y-118975000I0J-200000D01*
G01*
X92475000Y-119375000D01*
G75*
G02*
X92275000Y-119575000I-200000J0D01*
G01*
G37*
G36*
G01*
X92275000Y-121225000D02*
X91725000Y-121225000D01*
G75*
G02*
X91525000Y-121025000I0J200000D01*
G01*
X91525000Y-120625000D01*
G75*
G02*
X91725000Y-120425000I200000J0D01*
G01*
X92275000Y-120425000D01*
G75*
G02*
X92475000Y-120625000I0J-200000D01*
G01*
X92475000Y-121025000D01*
G75*
G02*
X92275000Y-121225000I-200000J0D01*
G01*
G37*
%TD*%
%TO.C,R13*%
G36*
G01*
X96225000Y-129725000D02*
X96225000Y-130275000D01*
G75*
G02*
X96025000Y-130475000I-200000J0D01*
G01*
X95625000Y-130475000D01*
G75*
G02*
X95425000Y-130275000I0J200000D01*
G01*
X95425000Y-129725000D01*
G75*
G02*
X95625000Y-129525000I200000J0D01*
G01*
X96025000Y-129525000D01*
G75*
G02*
X96225000Y-129725000I0J-200000D01*
G01*
G37*
G36*
G01*
X94575000Y-129725000D02*
X94575000Y-130275000D01*
G75*
G02*
X94375000Y-130475000I-200000J0D01*
G01*
X93975000Y-130475000D01*
G75*
G02*
X93775000Y-130275000I0J200000D01*
G01*
X93775000Y-129725000D01*
G75*
G02*
X93975000Y-129525000I200000J0D01*
G01*
X94375000Y-129525000D01*
G75*
G02*
X94575000Y-129725000I0J-200000D01*
G01*
G37*
%TD*%
%TO.C,R14*%
G36*
G01*
X122275000Y-121225000D02*
X121725000Y-121225000D01*
G75*
G02*
X121525000Y-121025000I0J200000D01*
G01*
X121525000Y-120625000D01*
G75*
G02*
X121725000Y-120425000I200000J0D01*
G01*
X122275000Y-120425000D01*
G75*
G02*
X122475000Y-120625000I0J-200000D01*
G01*
X122475000Y-121025000D01*
G75*
G02*
X122275000Y-121225000I-200000J0D01*
G01*
G37*
G36*
G01*
X122275000Y-119575000D02*
X121725000Y-119575000D01*
G75*
G02*
X121525000Y-119375000I0J200000D01*
G01*
X121525000Y-118975000D01*
G75*
G02*
X121725000Y-118775000I200000J0D01*
G01*
X122275000Y-118775000D01*
G75*
G02*
X122475000Y-118975000I0J-200000D01*
G01*
X122475000Y-119375000D01*
G75*
G02*
X122275000Y-119575000I-200000J0D01*
G01*
G37*
%TD*%
%TO.C,R15*%
G36*
G01*
X126225000Y-129725000D02*
X126225000Y-130275000D01*
G75*
G02*
X126025000Y-130475000I-200000J0D01*
G01*
X125625000Y-130475000D01*
G75*
G02*
X125425000Y-130275000I0J200000D01*
G01*
X125425000Y-129725000D01*
G75*
G02*
X125625000Y-129525000I200000J0D01*
G01*
X126025000Y-129525000D01*
G75*
G02*
X126225000Y-129725000I0J-200000D01*
G01*
G37*
G36*
G01*
X124575000Y-129725000D02*
X124575000Y-130275000D01*
G75*
G02*
X124375000Y-130475000I-200000J0D01*
G01*
X123975000Y-130475000D01*
G75*
G02*
X123775000Y-130275000I0J200000D01*
G01*
X123775000Y-129725000D01*
G75*
G02*
X123975000Y-129525000I200000J0D01*
G01*
X124375000Y-129525000D01*
G75*
G02*
X124575000Y-129725000I0J-200000D01*
G01*
G37*
%TD*%
%TO.C,R16*%
G36*
G01*
X68775000Y-136275000D02*
X68775000Y-135725000D01*
G75*
G02*
X68975000Y-135525000I200000J0D01*
G01*
X69375000Y-135525000D01*
G75*
G02*
X69575000Y-135725000I0J-200000D01*
G01*
X69575000Y-136275000D01*
G75*
G02*
X69375000Y-136475000I-200000J0D01*
G01*
X68975000Y-136475000D01*
G75*
G02*
X68775000Y-136275000I0J200000D01*
G01*
G37*
G36*
G01*
X70425000Y-136275000D02*
X70425000Y-135725000D01*
G75*
G02*
X70625000Y-135525000I200000J0D01*
G01*
X71025000Y-135525000D01*
G75*
G02*
X71225000Y-135725000I0J-200000D01*
G01*
X71225000Y-136275000D01*
G75*
G02*
X71025000Y-136475000I-200000J0D01*
G01*
X70625000Y-136475000D01*
G75*
G02*
X70425000Y-136275000I0J200000D01*
G01*
G37*
%TD*%
%TO.C,R17*%
G36*
G01*
X100425000Y-136275000D02*
X100425000Y-135725000D01*
G75*
G02*
X100625000Y-135525000I200000J0D01*
G01*
X101025000Y-135525000D01*
G75*
G02*
X101225000Y-135725000I0J-200000D01*
G01*
X101225000Y-136275000D01*
G75*
G02*
X101025000Y-136475000I-200000J0D01*
G01*
X100625000Y-136475000D01*
G75*
G02*
X100425000Y-136275000I0J200000D01*
G01*
G37*
G36*
G01*
X98775000Y-136275000D02*
X98775000Y-135725000D01*
G75*
G02*
X98975000Y-135525000I200000J0D01*
G01*
X99375000Y-135525000D01*
G75*
G02*
X99575000Y-135725000I0J-200000D01*
G01*
X99575000Y-136275000D01*
G75*
G02*
X99375000Y-136475000I-200000J0D01*
G01*
X98975000Y-136475000D01*
G75*
G02*
X98775000Y-136275000I0J200000D01*
G01*
G37*
%TD*%
%TO.C,R18*%
G36*
G01*
X128775000Y-136275000D02*
X128775000Y-135725000D01*
G75*
G02*
X128975000Y-135525000I200000J0D01*
G01*
X129375000Y-135525000D01*
G75*
G02*
X129575000Y-135725000I0J-200000D01*
G01*
X129575000Y-136275000D01*
G75*
G02*
X129375000Y-136475000I-200000J0D01*
G01*
X128975000Y-136475000D01*
G75*
G02*
X128775000Y-136275000I0J200000D01*
G01*
G37*
G36*
G01*
X130425000Y-136275000D02*
X130425000Y-135725000D01*
G75*
G02*
X130625000Y-135525000I200000J0D01*
G01*
X131025000Y-135525000D01*
G75*
G02*
X131225000Y-135725000I0J-200000D01*
G01*
X131225000Y-136275000D01*
G75*
G02*
X131025000Y-136475000I-200000J0D01*
G01*
X130625000Y-136475000D01*
G75*
G02*
X130425000Y-136275000I0J200000D01*
G01*
G37*
%TD*%
%TO.C,R19*%
G36*
G01*
X71225000Y-129725000D02*
X71225000Y-130275000D01*
G75*
G02*
X71025000Y-130475000I-200000J0D01*
G01*
X70625000Y-130475000D01*
G75*
G02*
X70425000Y-130275000I0J200000D01*
G01*
X70425000Y-129725000D01*
G75*
G02*
X70625000Y-129525000I200000J0D01*
G01*
X71025000Y-129525000D01*
G75*
G02*
X71225000Y-129725000I0J-200000D01*
G01*
G37*
G36*
G01*
X69575000Y-129725000D02*
X69575000Y-130275000D01*
G75*
G02*
X69375000Y-130475000I-200000J0D01*
G01*
X68975000Y-130475000D01*
G75*
G02*
X68775000Y-130275000I0J200000D01*
G01*
X68775000Y-129725000D01*
G75*
G02*
X68975000Y-129525000I200000J0D01*
G01*
X69375000Y-129525000D01*
G75*
G02*
X69575000Y-129725000I0J-200000D01*
G01*
G37*
%TD*%
%TO.C,R20*%
G36*
G01*
X99575000Y-129725000D02*
X99575000Y-130275000D01*
G75*
G02*
X99375000Y-130475000I-200000J0D01*
G01*
X98975000Y-130475000D01*
G75*
G02*
X98775000Y-130275000I0J200000D01*
G01*
X98775000Y-129725000D01*
G75*
G02*
X98975000Y-129525000I200000J0D01*
G01*
X99375000Y-129525000D01*
G75*
G02*
X99575000Y-129725000I0J-200000D01*
G01*
G37*
G36*
G01*
X101225000Y-129725000D02*
X101225000Y-130275000D01*
G75*
G02*
X101025000Y-130475000I-200000J0D01*
G01*
X100625000Y-130475000D01*
G75*
G02*
X100425000Y-130275000I0J200000D01*
G01*
X100425000Y-129725000D01*
G75*
G02*
X100625000Y-129525000I200000J0D01*
G01*
X101025000Y-129525000D01*
G75*
G02*
X101225000Y-129725000I0J-200000D01*
G01*
G37*
%TD*%
%TO.C,R21*%
G36*
G01*
X131225000Y-129725000D02*
X131225000Y-130275000D01*
G75*
G02*
X131025000Y-130475000I-200000J0D01*
G01*
X130625000Y-130475000D01*
G75*
G02*
X130425000Y-130275000I0J200000D01*
G01*
X130425000Y-129725000D01*
G75*
G02*
X130625000Y-129525000I200000J0D01*
G01*
X131025000Y-129525000D01*
G75*
G02*
X131225000Y-129725000I0J-200000D01*
G01*
G37*
G36*
G01*
X129575000Y-129725000D02*
X129575000Y-130275000D01*
G75*
G02*
X129375000Y-130475000I-200000J0D01*
G01*
X128975000Y-130475000D01*
G75*
G02*
X128775000Y-130275000I0J200000D01*
G01*
X128775000Y-129725000D01*
G75*
G02*
X128975000Y-129525000I200000J0D01*
G01*
X129375000Y-129525000D01*
G75*
G02*
X129575000Y-129725000I0J-200000D01*
G01*
G37*
%TD*%
M02*
