%TF.GenerationSoftware,KiCad,Pcbnew,(5.1.10)-1*%
%TF.CreationDate,2021-09-26T04:03:23+09:00*%
%TF.ProjectId,HAS-CT-Board,4841532d-4354-42d4-926f-6172642e6b69,rev?*%
%TF.SameCoordinates,Original*%
%TF.FileFunction,Legend,Bot*%
%TF.FilePolarity,Positive*%
%FSLAX46Y46*%
G04 Gerber Fmt 4.6, Leading zero omitted, Abs format (unit mm)*
G04 Created by KiCad (PCBNEW (5.1.10)-1) date 2021-09-26 04:03:23*
%MOMM*%
%LPD*%
G01*
G04 APERTURE LIST*
%ADD10C,0.120000*%
%ADD11C,0.150000*%
G04 APERTURE END LIST*
D10*
%TO.C,C3*%
X142140580Y-74510000D02*
X141859420Y-74510000D01*
X142140580Y-73490000D02*
X141859420Y-73490000D01*
%TO.C,C4*%
X128140580Y-74510000D02*
X127859420Y-74510000D01*
X128140580Y-73490000D02*
X127859420Y-73490000D01*
%TO.C,C8*%
X138859420Y-80510000D02*
X139140580Y-80510000D01*
X138859420Y-79490000D02*
X139140580Y-79490000D01*
%TO.C,C9*%
X125140580Y-80510000D02*
X124859420Y-80510000D01*
X125140580Y-79490000D02*
X124859420Y-79490000D01*
%TO.C,C3*%
D11*
X142166666Y-72927142D02*
X142214285Y-72974761D01*
X142357142Y-73022380D01*
X142452380Y-73022380D01*
X142595238Y-72974761D01*
X142690476Y-72879523D01*
X142738095Y-72784285D01*
X142785714Y-72593809D01*
X142785714Y-72450952D01*
X142738095Y-72260476D01*
X142690476Y-72165238D01*
X142595238Y-72070000D01*
X142452380Y-72022380D01*
X142357142Y-72022380D01*
X142214285Y-72070000D01*
X142166666Y-72117619D01*
X141833333Y-72022380D02*
X141214285Y-72022380D01*
X141547619Y-72403333D01*
X141404761Y-72403333D01*
X141309523Y-72450952D01*
X141261904Y-72498571D01*
X141214285Y-72593809D01*
X141214285Y-72831904D01*
X141261904Y-72927142D01*
X141309523Y-72974761D01*
X141404761Y-73022380D01*
X141690476Y-73022380D01*
X141785714Y-72974761D01*
X141833333Y-72927142D01*
%TO.C,C4*%
X128166666Y-72927142D02*
X128214285Y-72974761D01*
X128357142Y-73022380D01*
X128452380Y-73022380D01*
X128595238Y-72974761D01*
X128690476Y-72879523D01*
X128738095Y-72784285D01*
X128785714Y-72593809D01*
X128785714Y-72450952D01*
X128738095Y-72260476D01*
X128690476Y-72165238D01*
X128595238Y-72070000D01*
X128452380Y-72022380D01*
X128357142Y-72022380D01*
X128214285Y-72070000D01*
X128166666Y-72117619D01*
X127309523Y-72355714D02*
X127309523Y-73022380D01*
X127547619Y-71974761D02*
X127785714Y-72689047D01*
X127166666Y-72689047D01*
%TO.C,C8*%
X139166666Y-82157142D02*
X139214285Y-82204761D01*
X139357142Y-82252380D01*
X139452380Y-82252380D01*
X139595238Y-82204761D01*
X139690476Y-82109523D01*
X139738095Y-82014285D01*
X139785714Y-81823809D01*
X139785714Y-81680952D01*
X139738095Y-81490476D01*
X139690476Y-81395238D01*
X139595238Y-81300000D01*
X139452380Y-81252380D01*
X139357142Y-81252380D01*
X139214285Y-81300000D01*
X139166666Y-81347619D01*
X138595238Y-81680952D02*
X138690476Y-81633333D01*
X138738095Y-81585714D01*
X138785714Y-81490476D01*
X138785714Y-81442857D01*
X138738095Y-81347619D01*
X138690476Y-81300000D01*
X138595238Y-81252380D01*
X138404761Y-81252380D01*
X138309523Y-81300000D01*
X138261904Y-81347619D01*
X138214285Y-81442857D01*
X138214285Y-81490476D01*
X138261904Y-81585714D01*
X138309523Y-81633333D01*
X138404761Y-81680952D01*
X138595238Y-81680952D01*
X138690476Y-81728571D01*
X138738095Y-81776190D01*
X138785714Y-81871428D01*
X138785714Y-82061904D01*
X138738095Y-82157142D01*
X138690476Y-82204761D01*
X138595238Y-82252380D01*
X138404761Y-82252380D01*
X138309523Y-82204761D01*
X138261904Y-82157142D01*
X138214285Y-82061904D01*
X138214285Y-81871428D01*
X138261904Y-81776190D01*
X138309523Y-81728571D01*
X138404761Y-81680952D01*
%TO.C,C9*%
X125166666Y-82157142D02*
X125214285Y-82204761D01*
X125357142Y-82252380D01*
X125452380Y-82252380D01*
X125595238Y-82204761D01*
X125690476Y-82109523D01*
X125738095Y-82014285D01*
X125785714Y-81823809D01*
X125785714Y-81680952D01*
X125738095Y-81490476D01*
X125690476Y-81395238D01*
X125595238Y-81300000D01*
X125452380Y-81252380D01*
X125357142Y-81252380D01*
X125214285Y-81300000D01*
X125166666Y-81347619D01*
X124690476Y-82252380D02*
X124500000Y-82252380D01*
X124404761Y-82204761D01*
X124357142Y-82157142D01*
X124261904Y-82014285D01*
X124214285Y-81823809D01*
X124214285Y-81442857D01*
X124261904Y-81347619D01*
X124309523Y-81300000D01*
X124404761Y-81252380D01*
X124595238Y-81252380D01*
X124690476Y-81300000D01*
X124738095Y-81347619D01*
X124785714Y-81442857D01*
X124785714Y-81680952D01*
X124738095Y-81776190D01*
X124690476Y-81823809D01*
X124595238Y-81871428D01*
X124404761Y-81871428D01*
X124309523Y-81823809D01*
X124261904Y-81776190D01*
X124214285Y-81680952D01*
%TD*%
M02*
