M48
; DRILL file {KiCad (5.1.10)-1} date 09/26/21 04:03:34
; FORMAT={-:-/ absolute / metric / decimal}
; #@! TF.CreationDate,2021-09-26T04:03:34+09:00
; #@! TF.GenerationSoftware,Kicad,Pcbnew,(5.1.10)-1
FMAT,2
METRIC
T1C0.400
T2C0.800
T3C1.000
T4C1.100
T5C1.190
T6C1.200
T7C1.700
T8C1.400
T9C3.200
%
G90
G05
T1
X68.6Y-96.0
X98.6Y-96.0
X125.4Y-96.0
T2
X57.0Y-130.46
X57.0Y-133.0
X57.0Y-135.54
X64.0Y-112.0
X64.0Y-118.0
X66.38Y-116.0
X66.38Y-123.62
X68.92Y-116.0
X68.92Y-123.62
X71.46Y-116.0
X71.46Y-123.62
X74.0Y-116.0
X74.0Y-123.62
X87.0Y-130.46
X87.0Y-133.0
X87.0Y-135.54
X94.0Y-112.0
X94.0Y-118.0
X96.38Y-116.0
X96.38Y-123.62
X98.92Y-116.0
X98.92Y-123.62
X101.46Y-116.0
X101.46Y-123.62
X104.0Y-116.0
X104.0Y-123.62
X117.0Y-130.46
X117.0Y-133.0
X117.0Y-135.54
X123.4Y-80.0
X123.92Y-54.46
X123.92Y-57.0
X123.92Y-77.0
X124.0Y-118.2
X124.0Y-112.0
X125.5Y-85.0
X126.38Y-116.0
X126.38Y-123.62
X126.4Y-74.0
X126.46Y-77.0
X126.6Y-80.0
X128.0Y-85.0
X128.92Y-116.0
X128.92Y-123.62
X129.0Y-54.46
X129.0Y-57.0
X129.0Y-77.0
X129.6Y-74.0
X131.46Y-116.0
X131.46Y-123.62
X134.0Y-116.0
X134.0Y-123.62
X137.4Y-80.0
X137.92Y-77.0
X139.5Y-85.0
X140.4Y-74.0
X140.46Y-77.0
X140.6Y-80.0
X142.0Y-85.0
X143.0Y-77.0
X143.6Y-74.0
T3
X62.0Y-116.0
X63.0Y-145.0
X77.0Y-145.0
X88.0Y-64.0
X88.0Y-76.0
X92.0Y-116.0
X93.0Y-145.0
X107.0Y-145.0
X112.0Y-64.0
X112.0Y-70.0
X112.0Y-76.0
X122.0Y-116.0
X123.0Y-145.0
X124.0Y-67.0
X129.0Y-67.0
X134.0Y-89.0
X137.0Y-145.0
X138.0Y-67.0
X143.0Y-67.0
T5
X66.0Y-100.0
X68.54Y-100.0
X71.08Y-100.0
X73.62Y-100.0
X96.0Y-100.0
X98.54Y-100.0
X101.08Y-100.0
X103.62Y-100.0
X126.0Y-100.0
X128.54Y-100.0
X131.08Y-100.0
X133.62Y-100.0
T6
X70.0Y-145.0
X100.0Y-145.0
X130.0Y-145.0
T7
X67.46Y-142.46
X67.46Y-147.54
X72.54Y-142.46
X72.54Y-147.54
X79.0Y-59.3
X79.0Y-66.0
X79.0Y-76.0
X79.0Y-82.7
X97.46Y-142.46
X97.46Y-147.54
X102.54Y-142.46
X102.54Y-147.54
X127.46Y-142.46
X127.46Y-147.54
X132.54Y-142.46
X132.54Y-147.54
T9
X55.0Y-55.0
X55.0Y-145.0
X145.0Y-55.0
X145.0Y-145.0
T4
G00X69.15Y-65.5
M15
G01X71.05Y-65.5
M16
G05
G00X69.15Y-76.5
M15
G01X71.05Y-76.5
M16
G05
T8
G00X59.7Y-64.3
M15
G01X62.3Y-64.3
M16
G05
G00X59.7Y-77.7
M15
G01X62.3Y-77.7
M16
G05
T0
M30
