%TF.GenerationSoftware,KiCad,Pcbnew,(5.1.10)-1*%
%TF.CreationDate,2021-09-26T04:03:23+09:00*%
%TF.ProjectId,HAS-CT-Board,4841532d-4354-42d4-926f-6172642e6b69,rev?*%
%TF.SameCoordinates,Original*%
%TF.FileFunction,Paste,Bot*%
%TF.FilePolarity,Positive*%
%FSLAX46Y46*%
G04 Gerber Fmt 4.6, Leading zero omitted, Abs format (unit mm)*
G04 Created by KiCad (PCBNEW (5.1.10)-1) date 2021-09-26 04:03:23*
%MOMM*%
%LPD*%
G01*
G04 APERTURE LIST*
G04 APERTURE END LIST*
%TO.C,C3*%
G36*
G01*
X143225000Y-73750000D02*
X143225000Y-74250000D01*
G75*
G02*
X143000000Y-74475000I-225000J0D01*
G01*
X142550000Y-74475000D01*
G75*
G02*
X142325000Y-74250000I0J225000D01*
G01*
X142325000Y-73750000D01*
G75*
G02*
X142550000Y-73525000I225000J0D01*
G01*
X143000000Y-73525000D01*
G75*
G02*
X143225000Y-73750000I0J-225000D01*
G01*
G37*
G36*
G01*
X141675000Y-73750000D02*
X141675000Y-74250000D01*
G75*
G02*
X141450000Y-74475000I-225000J0D01*
G01*
X141000000Y-74475000D01*
G75*
G02*
X140775000Y-74250000I0J225000D01*
G01*
X140775000Y-73750000D01*
G75*
G02*
X141000000Y-73525000I225000J0D01*
G01*
X141450000Y-73525000D01*
G75*
G02*
X141675000Y-73750000I0J-225000D01*
G01*
G37*
%TD*%
%TO.C,C4*%
G36*
G01*
X129225000Y-73750000D02*
X129225000Y-74250000D01*
G75*
G02*
X129000000Y-74475000I-225000J0D01*
G01*
X128550000Y-74475000D01*
G75*
G02*
X128325000Y-74250000I0J225000D01*
G01*
X128325000Y-73750000D01*
G75*
G02*
X128550000Y-73525000I225000J0D01*
G01*
X129000000Y-73525000D01*
G75*
G02*
X129225000Y-73750000I0J-225000D01*
G01*
G37*
G36*
G01*
X127675000Y-73750000D02*
X127675000Y-74250000D01*
G75*
G02*
X127450000Y-74475000I-225000J0D01*
G01*
X127000000Y-74475000D01*
G75*
G02*
X126775000Y-74250000I0J225000D01*
G01*
X126775000Y-73750000D01*
G75*
G02*
X127000000Y-73525000I225000J0D01*
G01*
X127450000Y-73525000D01*
G75*
G02*
X127675000Y-73750000I0J-225000D01*
G01*
G37*
%TD*%
%TO.C,C8*%
G36*
G01*
X139325000Y-80250000D02*
X139325000Y-79750000D01*
G75*
G02*
X139550000Y-79525000I225000J0D01*
G01*
X140000000Y-79525000D01*
G75*
G02*
X140225000Y-79750000I0J-225000D01*
G01*
X140225000Y-80250000D01*
G75*
G02*
X140000000Y-80475000I-225000J0D01*
G01*
X139550000Y-80475000D01*
G75*
G02*
X139325000Y-80250000I0J225000D01*
G01*
G37*
G36*
G01*
X137775000Y-80250000D02*
X137775000Y-79750000D01*
G75*
G02*
X138000000Y-79525000I225000J0D01*
G01*
X138450000Y-79525000D01*
G75*
G02*
X138675000Y-79750000I0J-225000D01*
G01*
X138675000Y-80250000D01*
G75*
G02*
X138450000Y-80475000I-225000J0D01*
G01*
X138000000Y-80475000D01*
G75*
G02*
X137775000Y-80250000I0J225000D01*
G01*
G37*
%TD*%
%TO.C,C9*%
G36*
G01*
X126225000Y-79750000D02*
X126225000Y-80250000D01*
G75*
G02*
X126000000Y-80475000I-225000J0D01*
G01*
X125550000Y-80475000D01*
G75*
G02*
X125325000Y-80250000I0J225000D01*
G01*
X125325000Y-79750000D01*
G75*
G02*
X125550000Y-79525000I225000J0D01*
G01*
X126000000Y-79525000D01*
G75*
G02*
X126225000Y-79750000I0J-225000D01*
G01*
G37*
G36*
G01*
X124675000Y-79750000D02*
X124675000Y-80250000D01*
G75*
G02*
X124450000Y-80475000I-225000J0D01*
G01*
X124000000Y-80475000D01*
G75*
G02*
X123775000Y-80250000I0J225000D01*
G01*
X123775000Y-79750000D01*
G75*
G02*
X124000000Y-79525000I225000J0D01*
G01*
X124450000Y-79525000D01*
G75*
G02*
X124675000Y-79750000I0J-225000D01*
G01*
G37*
%TD*%
M02*
