%TF.GenerationSoftware,KiCad,Pcbnew,(5.1.10)-1*%
%TF.CreationDate,2021-09-26T04:03:23+09:00*%
%TF.ProjectId,HAS-CT-Board,4841532d-4354-42d4-926f-6172642e6b69,rev?*%
%TF.SameCoordinates,Original*%
%TF.FileFunction,Legend,Top*%
%TF.FilePolarity,Positive*%
%FSLAX46Y46*%
G04 Gerber Fmt 4.6, Leading zero omitted, Abs format (unit mm)*
G04 Created by KiCad (PCBNEW (5.1.10)-1) date 2021-09-26 04:03:23*
%MOMM*%
%LPD*%
G01*
G04 APERTURE LIST*
%ADD10C,0.150000*%
%ADD11C,0.200000*%
%ADD12C,0.120000*%
G04 APERTURE END LIST*
D10*
X147252380Y-130476190D02*
X146252380Y-130476190D01*
X146252380Y-130238095D01*
X146300000Y-130095238D01*
X146395238Y-130000000D01*
X146490476Y-129952380D01*
X146680952Y-129904761D01*
X146823809Y-129904761D01*
X147014285Y-129952380D01*
X147109523Y-130000000D01*
X147204761Y-130095238D01*
X147252380Y-130238095D01*
X147252380Y-130476190D01*
X147204761Y-129095238D02*
X147252380Y-129190476D01*
X147252380Y-129380952D01*
X147204761Y-129476190D01*
X147109523Y-129523809D01*
X146728571Y-129523809D01*
X146633333Y-129476190D01*
X146585714Y-129380952D01*
X146585714Y-129190476D01*
X146633333Y-129095238D01*
X146728571Y-129047619D01*
X146823809Y-129047619D01*
X146919047Y-129523809D01*
X147204761Y-128666666D02*
X147252380Y-128571428D01*
X147252380Y-128380952D01*
X147204761Y-128285714D01*
X147109523Y-128238095D01*
X147061904Y-128238095D01*
X146966666Y-128285714D01*
X146919047Y-128380952D01*
X146919047Y-128523809D01*
X146871428Y-128619047D01*
X146776190Y-128666666D01*
X146728571Y-128666666D01*
X146633333Y-128619047D01*
X146585714Y-128523809D01*
X146585714Y-128380952D01*
X146633333Y-128285714D01*
X147252380Y-127809523D02*
X146585714Y-127809523D01*
X146252380Y-127809523D02*
X146300000Y-127857142D01*
X146347619Y-127809523D01*
X146300000Y-127761904D01*
X146252380Y-127809523D01*
X146347619Y-127809523D01*
X146585714Y-126904761D02*
X147395238Y-126904761D01*
X147490476Y-126952380D01*
X147538095Y-127000000D01*
X147585714Y-127095238D01*
X147585714Y-127238095D01*
X147538095Y-127333333D01*
X147204761Y-126904761D02*
X147252380Y-127000000D01*
X147252380Y-127190476D01*
X147204761Y-127285714D01*
X147157142Y-127333333D01*
X147061904Y-127380952D01*
X146776190Y-127380952D01*
X146680952Y-127333333D01*
X146633333Y-127285714D01*
X146585714Y-127190476D01*
X146585714Y-127000000D01*
X146633333Y-126904761D01*
X146585714Y-126428571D02*
X147252380Y-126428571D01*
X146680952Y-126428571D02*
X146633333Y-126380952D01*
X146585714Y-126285714D01*
X146585714Y-126142857D01*
X146633333Y-126047619D01*
X146728571Y-126000000D01*
X147252380Y-126000000D01*
X147204761Y-125142857D02*
X147252380Y-125238095D01*
X147252380Y-125428571D01*
X147204761Y-125523809D01*
X147109523Y-125571428D01*
X146728571Y-125571428D01*
X146633333Y-125523809D01*
X146585714Y-125428571D01*
X146585714Y-125238095D01*
X146633333Y-125142857D01*
X146728571Y-125095238D01*
X146823809Y-125095238D01*
X146919047Y-125571428D01*
X147252380Y-124238095D02*
X146252380Y-124238095D01*
X147204761Y-124238095D02*
X147252380Y-124333333D01*
X147252380Y-124523809D01*
X147204761Y-124619047D01*
X147157142Y-124666666D01*
X147061904Y-124714285D01*
X146776190Y-124714285D01*
X146680952Y-124666666D01*
X146633333Y-124619047D01*
X146585714Y-124523809D01*
X146585714Y-124333333D01*
X146633333Y-124238095D01*
X147252380Y-123000000D02*
X146252380Y-123000000D01*
X146633333Y-123000000D02*
X146585714Y-122904761D01*
X146585714Y-122714285D01*
X146633333Y-122619047D01*
X146680952Y-122571428D01*
X146776190Y-122523809D01*
X147061904Y-122523809D01*
X147157142Y-122571428D01*
X147204761Y-122619047D01*
X147252380Y-122714285D01*
X147252380Y-122904761D01*
X147204761Y-123000000D01*
X146585714Y-122190476D02*
X147252380Y-121952380D01*
X146585714Y-121714285D02*
X147252380Y-121952380D01*
X147490476Y-122047619D01*
X147538095Y-122095238D01*
X147585714Y-122190476D01*
X146776190Y-119952380D02*
X146728571Y-120000000D01*
X146680952Y-120095238D01*
X146680952Y-120190476D01*
X146728571Y-120285714D01*
X146776190Y-120333333D01*
X146871428Y-120380952D01*
X146966666Y-120380952D01*
X147061904Y-120333333D01*
X147109523Y-120285714D01*
X147157142Y-120190476D01*
X147157142Y-120095238D01*
X147109523Y-120000000D01*
X147061904Y-119952380D01*
X146680952Y-119952380D02*
X147061904Y-119952380D01*
X147109523Y-119904761D01*
X147109523Y-119857142D01*
X147061904Y-119761904D01*
X146966666Y-119714285D01*
X146728571Y-119714285D01*
X146585714Y-119809523D01*
X146490476Y-119952380D01*
X146442857Y-120142857D01*
X146490476Y-120333333D01*
X146585714Y-120476190D01*
X146728571Y-120571428D01*
X146919047Y-120619047D01*
X147109523Y-120571428D01*
X147252380Y-120476190D01*
X147347619Y-120333333D01*
X147395238Y-120142857D01*
X147347619Y-119952380D01*
X147252380Y-119809523D01*
X147252380Y-118857142D02*
X146728571Y-118857142D01*
X146633333Y-118904761D01*
X146585714Y-119000000D01*
X146585714Y-119190476D01*
X146633333Y-119285714D01*
X147204761Y-118857142D02*
X147252380Y-118952380D01*
X147252380Y-119190476D01*
X147204761Y-119285714D01*
X147109523Y-119333333D01*
X147014285Y-119333333D01*
X146919047Y-119285714D01*
X146871428Y-119190476D01*
X146871428Y-118952380D01*
X146823809Y-118857142D01*
X147252380Y-118380952D02*
X146252380Y-118380952D01*
X146871428Y-118285714D02*
X147252380Y-118000000D01*
X146585714Y-118000000D02*
X146966666Y-118380952D01*
X147252380Y-117571428D02*
X146585714Y-117571428D01*
X146252380Y-117571428D02*
X146300000Y-117619047D01*
X146347619Y-117571428D01*
X146300000Y-117523809D01*
X146252380Y-117571428D01*
X146347619Y-117571428D01*
X146585714Y-117238095D02*
X146585714Y-116857142D01*
X146252380Y-117095238D02*
X147109523Y-117095238D01*
X147204761Y-117047619D01*
X147252380Y-116952380D01*
X147252380Y-116857142D01*
X147252380Y-116380952D02*
X147204761Y-116476190D01*
X147157142Y-116523809D01*
X147061904Y-116571428D01*
X146776190Y-116571428D01*
X146680952Y-116523809D01*
X146633333Y-116476190D01*
X146585714Y-116380952D01*
X146585714Y-116238095D01*
X146633333Y-116142857D01*
X146680952Y-116095238D01*
X146776190Y-116047619D01*
X147061904Y-116047619D01*
X147157142Y-116095238D01*
X147204761Y-116142857D01*
X147252380Y-116238095D01*
X147252380Y-116380952D01*
X147347619Y-115857142D02*
X147347619Y-115095238D01*
X146252380Y-114666666D02*
X146252380Y-114571428D01*
X146300000Y-114476190D01*
X146347619Y-114428571D01*
X146442857Y-114380952D01*
X146633333Y-114333333D01*
X146871428Y-114333333D01*
X147061904Y-114380952D01*
X147157142Y-114428571D01*
X147204761Y-114476190D01*
X147252380Y-114571428D01*
X147252380Y-114666666D01*
X147204761Y-114761904D01*
X147157142Y-114809523D01*
X147061904Y-114857142D01*
X146871428Y-114904761D01*
X146633333Y-114904761D01*
X146442857Y-114857142D01*
X146347619Y-114809523D01*
X146300000Y-114761904D01*
X146252380Y-114666666D01*
X147252380Y-113857142D02*
X147252380Y-113666666D01*
X147204761Y-113571428D01*
X147157142Y-113523809D01*
X147014285Y-113428571D01*
X146823809Y-113380952D01*
X146442857Y-113380952D01*
X146347619Y-113428571D01*
X146300000Y-113476190D01*
X146252380Y-113571428D01*
X146252380Y-113761904D01*
X146300000Y-113857142D01*
X146347619Y-113904761D01*
X146442857Y-113952380D01*
X146680952Y-113952380D01*
X146776190Y-113904761D01*
X146823809Y-113857142D01*
X146871428Y-113761904D01*
X146871428Y-113571428D01*
X146823809Y-113476190D01*
X146776190Y-113428571D01*
X146680952Y-113380952D01*
X147252380Y-112428571D02*
X147252380Y-113000000D01*
X147252380Y-112714285D02*
X146252380Y-112714285D01*
X146395238Y-112809523D01*
X146490476Y-112904761D01*
X146538095Y-113000000D01*
X146585714Y-111571428D02*
X147252380Y-111571428D01*
X146204761Y-111809523D02*
X146919047Y-112047619D01*
X146919047Y-111428571D01*
D11*
X143704761Y-134780952D02*
X141704761Y-134780952D01*
X142657142Y-134780952D02*
X142657142Y-133638095D01*
X143704761Y-133638095D02*
X141704761Y-133638095D01*
X143133333Y-132780952D02*
X143133333Y-131828571D01*
X143704761Y-132971428D02*
X141704761Y-132304761D01*
X143704761Y-131638095D01*
X143609523Y-131066666D02*
X143704761Y-130780952D01*
X143704761Y-130304761D01*
X143609523Y-130114285D01*
X143514285Y-130019047D01*
X143323809Y-129923809D01*
X143133333Y-129923809D01*
X142942857Y-130019047D01*
X142847619Y-130114285D01*
X142752380Y-130304761D01*
X142657142Y-130685714D01*
X142561904Y-130876190D01*
X142466666Y-130971428D01*
X142276190Y-131066666D01*
X142085714Y-131066666D01*
X141895238Y-130971428D01*
X141800000Y-130876190D01*
X141704761Y-130685714D01*
X141704761Y-130209523D01*
X141800000Y-129923809D01*
X142942857Y-129066666D02*
X142942857Y-127542857D01*
X143514285Y-125447619D02*
X143609523Y-125542857D01*
X143704761Y-125828571D01*
X143704761Y-126019047D01*
X143609523Y-126304761D01*
X143419047Y-126495238D01*
X143228571Y-126590476D01*
X142847619Y-126685714D01*
X142561904Y-126685714D01*
X142180952Y-126590476D01*
X141990476Y-126495238D01*
X141800000Y-126304761D01*
X141704761Y-126019047D01*
X141704761Y-125828571D01*
X141800000Y-125542857D01*
X141895238Y-125447619D01*
X141704761Y-124876190D02*
X141704761Y-123733333D01*
X143704761Y-124304761D02*
X141704761Y-124304761D01*
X142942857Y-123066666D02*
X142942857Y-121542857D01*
X142657142Y-119923809D02*
X142752380Y-119638095D01*
X142847619Y-119542857D01*
X143038095Y-119447619D01*
X143323809Y-119447619D01*
X143514285Y-119542857D01*
X143609523Y-119638095D01*
X143704761Y-119828571D01*
X143704761Y-120590476D01*
X141704761Y-120590476D01*
X141704761Y-119923809D01*
X141800000Y-119733333D01*
X141895238Y-119638095D01*
X142085714Y-119542857D01*
X142276190Y-119542857D01*
X142466666Y-119638095D01*
X142561904Y-119733333D01*
X142657142Y-119923809D01*
X142657142Y-120590476D01*
X143704761Y-118304761D02*
X143609523Y-118495238D01*
X143514285Y-118590476D01*
X143323809Y-118685714D01*
X142752380Y-118685714D01*
X142561904Y-118590476D01*
X142466666Y-118495238D01*
X142371428Y-118304761D01*
X142371428Y-118019047D01*
X142466666Y-117828571D01*
X142561904Y-117733333D01*
X142752380Y-117638095D01*
X143323809Y-117638095D01*
X143514285Y-117733333D01*
X143609523Y-117828571D01*
X143704761Y-118019047D01*
X143704761Y-118304761D01*
X143704761Y-115923809D02*
X142657142Y-115923809D01*
X142466666Y-116019047D01*
X142371428Y-116209523D01*
X142371428Y-116590476D01*
X142466666Y-116780952D01*
X143609523Y-115923809D02*
X143704761Y-116114285D01*
X143704761Y-116590476D01*
X143609523Y-116780952D01*
X143419047Y-116876190D01*
X143228571Y-116876190D01*
X143038095Y-116780952D01*
X142942857Y-116590476D01*
X142942857Y-116114285D01*
X142847619Y-115923809D01*
X143704761Y-114971428D02*
X142371428Y-114971428D01*
X142752380Y-114971428D02*
X142561904Y-114876190D01*
X142466666Y-114780952D01*
X142371428Y-114590476D01*
X142371428Y-114400000D01*
X143704761Y-112876190D02*
X141704761Y-112876190D01*
X143609523Y-112876190D02*
X143704761Y-113066666D01*
X143704761Y-113447619D01*
X143609523Y-113638095D01*
X143514285Y-113733333D01*
X143323809Y-113828571D01*
X142752380Y-113828571D01*
X142561904Y-113733333D01*
X142466666Y-113638095D01*
X142371428Y-113447619D01*
X142371428Y-113066666D01*
X142466666Y-112876190D01*
X142371428Y-110590476D02*
X143704761Y-110114285D01*
X142371428Y-109638095D01*
X143609523Y-108114285D02*
X143704761Y-108304761D01*
X143704761Y-108685714D01*
X143609523Y-108876190D01*
X143419047Y-108971428D01*
X142657142Y-108971428D01*
X142466666Y-108876190D01*
X142371428Y-108685714D01*
X142371428Y-108304761D01*
X142466666Y-108114285D01*
X142657142Y-108019047D01*
X142847619Y-108019047D01*
X143038095Y-108971428D01*
X143704761Y-107161904D02*
X142371428Y-107161904D01*
X142752380Y-107161904D02*
X142561904Y-107066666D01*
X142466666Y-106971428D01*
X142371428Y-106780952D01*
X142371428Y-106590476D01*
X143514285Y-105923809D02*
X143609523Y-105828571D01*
X143704761Y-105923809D01*
X143609523Y-106019047D01*
X143514285Y-105923809D01*
X143704761Y-105923809D01*
X143704761Y-103923809D02*
X143704761Y-105066666D01*
X143704761Y-104495238D02*
X141704761Y-104495238D01*
X141990476Y-104685714D01*
X142180952Y-104876190D01*
X142276190Y-105066666D01*
D10*
X62238095Y-147100000D02*
X62142857Y-147052380D01*
X62000000Y-147052380D01*
X61857142Y-147100000D01*
X61761904Y-147195238D01*
X61714285Y-147290476D01*
X61666666Y-147480952D01*
X61666666Y-147623809D01*
X61714285Y-147814285D01*
X61761904Y-147909523D01*
X61857142Y-148004761D01*
X62000000Y-148052380D01*
X62095238Y-148052380D01*
X62238095Y-148004761D01*
X62285714Y-147957142D01*
X62285714Y-147623809D01*
X62095238Y-147623809D01*
X62714285Y-148052380D02*
X62714285Y-147052380D01*
X63285714Y-148052380D01*
X63285714Y-147052380D01*
X63761904Y-148052380D02*
X63761904Y-147052380D01*
X64000000Y-147052380D01*
X64142857Y-147100000D01*
X64238095Y-147195238D01*
X64285714Y-147290476D01*
X64333333Y-147480952D01*
X64333333Y-147623809D01*
X64285714Y-147814285D01*
X64238095Y-147909523D01*
X64142857Y-148004761D01*
X64000000Y-148052380D01*
X63761904Y-148052380D01*
X92238095Y-147100000D02*
X92142857Y-147052380D01*
X92000000Y-147052380D01*
X91857142Y-147100000D01*
X91761904Y-147195238D01*
X91714285Y-147290476D01*
X91666666Y-147480952D01*
X91666666Y-147623809D01*
X91714285Y-147814285D01*
X91761904Y-147909523D01*
X91857142Y-148004761D01*
X92000000Y-148052380D01*
X92095238Y-148052380D01*
X92238095Y-148004761D01*
X92285714Y-147957142D01*
X92285714Y-147623809D01*
X92095238Y-147623809D01*
X92714285Y-148052380D02*
X92714285Y-147052380D01*
X93285714Y-148052380D01*
X93285714Y-147052380D01*
X93761904Y-148052380D02*
X93761904Y-147052380D01*
X94000000Y-147052380D01*
X94142857Y-147100000D01*
X94238095Y-147195238D01*
X94285714Y-147290476D01*
X94333333Y-147480952D01*
X94333333Y-147623809D01*
X94285714Y-147814285D01*
X94238095Y-147909523D01*
X94142857Y-148004761D01*
X94000000Y-148052380D01*
X93761904Y-148052380D01*
X122238095Y-147100000D02*
X122142857Y-147052380D01*
X122000000Y-147052380D01*
X121857142Y-147100000D01*
X121761904Y-147195238D01*
X121714285Y-147290476D01*
X121666666Y-147480952D01*
X121666666Y-147623809D01*
X121714285Y-147814285D01*
X121761904Y-147909523D01*
X121857142Y-148004761D01*
X122000000Y-148052380D01*
X122095238Y-148052380D01*
X122238095Y-148004761D01*
X122285714Y-147957142D01*
X122285714Y-147623809D01*
X122095238Y-147623809D01*
X122714285Y-148052380D02*
X122714285Y-147052380D01*
X123285714Y-148052380D01*
X123285714Y-147052380D01*
X123761904Y-148052380D02*
X123761904Y-147052380D01*
X124000000Y-147052380D01*
X124142857Y-147100000D01*
X124238095Y-147195238D01*
X124285714Y-147290476D01*
X124333333Y-147480952D01*
X124333333Y-147623809D01*
X124285714Y-147814285D01*
X124238095Y-147909523D01*
X124142857Y-148004761D01*
X124000000Y-148052380D01*
X123761904Y-148052380D01*
D12*
%TO.C,U1*%
X75330000Y-118810000D02*
X75330000Y-117160000D01*
X75330000Y-117160000D02*
X65050000Y-117160000D01*
X65050000Y-117160000D02*
X65050000Y-122460000D01*
X65050000Y-122460000D02*
X75330000Y-122460000D01*
X75330000Y-122460000D02*
X75330000Y-120810000D01*
X75390000Y-114670000D02*
X64990000Y-114670000D01*
X64990000Y-114670000D02*
X64990000Y-124950000D01*
X64990000Y-124950000D02*
X75390000Y-124950000D01*
X75390000Y-124950000D02*
X75390000Y-114670000D01*
X75330000Y-120810000D02*
G75*
G02*
X75330000Y-118810000I0J1000000D01*
G01*
%TO.C,C1*%
X145479646Y-70375000D02*
X145479646Y-69375000D01*
X145979646Y-69875000D02*
X144979646Y-69875000D01*
X135419000Y-67599000D02*
X135419000Y-66401000D01*
X135459000Y-67862000D02*
X135459000Y-66138000D01*
X135499000Y-68062000D02*
X135499000Y-65938000D01*
X135539000Y-68230000D02*
X135539000Y-65770000D01*
X135579000Y-68378000D02*
X135579000Y-65622000D01*
X135619000Y-68510000D02*
X135619000Y-65490000D01*
X135659000Y-68630000D02*
X135659000Y-65370000D01*
X135699000Y-68742000D02*
X135699000Y-65258000D01*
X135739000Y-68846000D02*
X135739000Y-65154000D01*
X135779000Y-68944000D02*
X135779000Y-65056000D01*
X135819000Y-69037000D02*
X135819000Y-64963000D01*
X135859000Y-69125000D02*
X135859000Y-64875000D01*
X135899000Y-69209000D02*
X135899000Y-64791000D01*
X135939000Y-69289000D02*
X135939000Y-64711000D01*
X135979000Y-69365000D02*
X135979000Y-64635000D01*
X136019000Y-69439000D02*
X136019000Y-64561000D01*
X136059000Y-69510000D02*
X136059000Y-64490000D01*
X136099000Y-69579000D02*
X136099000Y-64421000D01*
X136139000Y-69645000D02*
X136139000Y-64355000D01*
X136179000Y-69709000D02*
X136179000Y-64291000D01*
X136219000Y-69770000D02*
X136219000Y-64230000D01*
X136259000Y-69830000D02*
X136259000Y-64170000D01*
X136299000Y-69889000D02*
X136299000Y-64111000D01*
X136339000Y-69945000D02*
X136339000Y-64055000D01*
X136379000Y-70000000D02*
X136379000Y-64000000D01*
X136419000Y-70054000D02*
X136419000Y-63946000D01*
X136459000Y-70106000D02*
X136459000Y-63894000D01*
X136499000Y-70156000D02*
X136499000Y-63844000D01*
X136539000Y-70206000D02*
X136539000Y-63794000D01*
X136579000Y-70254000D02*
X136579000Y-63746000D01*
X136619000Y-70301000D02*
X136619000Y-63699000D01*
X136659000Y-70347000D02*
X136659000Y-63653000D01*
X136699000Y-70392000D02*
X136699000Y-63608000D01*
X136739000Y-70436000D02*
X136739000Y-63564000D01*
X136779000Y-65759000D02*
X136779000Y-63522000D01*
X136779000Y-70478000D02*
X136779000Y-68241000D01*
X136819000Y-65759000D02*
X136819000Y-63480000D01*
X136819000Y-70520000D02*
X136819000Y-68241000D01*
X136859000Y-65759000D02*
X136859000Y-63439000D01*
X136859000Y-70561000D02*
X136859000Y-68241000D01*
X136899000Y-65759000D02*
X136899000Y-63399000D01*
X136899000Y-70601000D02*
X136899000Y-68241000D01*
X136939000Y-65759000D02*
X136939000Y-63360000D01*
X136939000Y-70640000D02*
X136939000Y-68241000D01*
X136979000Y-65759000D02*
X136979000Y-63321000D01*
X136979000Y-70679000D02*
X136979000Y-68241000D01*
X137019000Y-65759000D02*
X137019000Y-63284000D01*
X137019000Y-70716000D02*
X137019000Y-68241000D01*
X137059000Y-65759000D02*
X137059000Y-63247000D01*
X137059000Y-70753000D02*
X137059000Y-68241000D01*
X137099000Y-65759000D02*
X137099000Y-63211000D01*
X137099000Y-70789000D02*
X137099000Y-68241000D01*
X137139000Y-65759000D02*
X137139000Y-63176000D01*
X137139000Y-70824000D02*
X137139000Y-68241000D01*
X137179000Y-65759000D02*
X137179000Y-63142000D01*
X137179000Y-70858000D02*
X137179000Y-68241000D01*
X137219000Y-65759000D02*
X137219000Y-63108000D01*
X137219000Y-70892000D02*
X137219000Y-68241000D01*
X137259000Y-65759000D02*
X137259000Y-63075000D01*
X137259000Y-70925000D02*
X137259000Y-68241000D01*
X137299000Y-65759000D02*
X137299000Y-63043000D01*
X137299000Y-70957000D02*
X137299000Y-68241000D01*
X137339000Y-65759000D02*
X137339000Y-63011000D01*
X137339000Y-70989000D02*
X137339000Y-68241000D01*
X137379000Y-65759000D02*
X137379000Y-62980000D01*
X137379000Y-71020000D02*
X137379000Y-68241000D01*
X137419000Y-65759000D02*
X137419000Y-62950000D01*
X137419000Y-71050000D02*
X137419000Y-68241000D01*
X137459000Y-65759000D02*
X137459000Y-62920000D01*
X137459000Y-71080000D02*
X137459000Y-68241000D01*
X137499000Y-65759000D02*
X137499000Y-62890000D01*
X137499000Y-71110000D02*
X137499000Y-68241000D01*
X137539000Y-65759000D02*
X137539000Y-62862000D01*
X137539000Y-71138000D02*
X137539000Y-68241000D01*
X137579000Y-65759000D02*
X137579000Y-62834000D01*
X137579000Y-71166000D02*
X137579000Y-68241000D01*
X137619000Y-65759000D02*
X137619000Y-62806000D01*
X137619000Y-71194000D02*
X137619000Y-68241000D01*
X137659000Y-65759000D02*
X137659000Y-62779000D01*
X137659000Y-71221000D02*
X137659000Y-68241000D01*
X137699000Y-65759000D02*
X137699000Y-62753000D01*
X137699000Y-71247000D02*
X137699000Y-68241000D01*
X137739000Y-65759000D02*
X137739000Y-62727000D01*
X137739000Y-71273000D02*
X137739000Y-68241000D01*
X137779000Y-65759000D02*
X137779000Y-62702000D01*
X137779000Y-71298000D02*
X137779000Y-68241000D01*
X137819000Y-65759000D02*
X137819000Y-62677000D01*
X137819000Y-71323000D02*
X137819000Y-68241000D01*
X137859000Y-65759000D02*
X137859000Y-62653000D01*
X137859000Y-71347000D02*
X137859000Y-68241000D01*
X137899000Y-65759000D02*
X137899000Y-62629000D01*
X137899000Y-71371000D02*
X137899000Y-68241000D01*
X137939000Y-65759000D02*
X137939000Y-62605000D01*
X137939000Y-71395000D02*
X137939000Y-68241000D01*
X137979000Y-65759000D02*
X137979000Y-62583000D01*
X137979000Y-71417000D02*
X137979000Y-68241000D01*
X138019000Y-65759000D02*
X138019000Y-62560000D01*
X138019000Y-71440000D02*
X138019000Y-68241000D01*
X138059000Y-65759000D02*
X138059000Y-62538000D01*
X138059000Y-71462000D02*
X138059000Y-68241000D01*
X138099000Y-65759000D02*
X138099000Y-62517000D01*
X138099000Y-71483000D02*
X138099000Y-68241000D01*
X138139000Y-65759000D02*
X138139000Y-62496000D01*
X138139000Y-71504000D02*
X138139000Y-68241000D01*
X138179000Y-65759000D02*
X138179000Y-62475000D01*
X138179000Y-71525000D02*
X138179000Y-68241000D01*
X138219000Y-65759000D02*
X138219000Y-62455000D01*
X138219000Y-71545000D02*
X138219000Y-68241000D01*
X138259000Y-65759000D02*
X138259000Y-62436000D01*
X138259000Y-71564000D02*
X138259000Y-68241000D01*
X138299000Y-65759000D02*
X138299000Y-62416000D01*
X138299000Y-71584000D02*
X138299000Y-68241000D01*
X138339000Y-65759000D02*
X138339000Y-62397000D01*
X138339000Y-71603000D02*
X138339000Y-68241000D01*
X138379000Y-65759000D02*
X138379000Y-62379000D01*
X138379000Y-71621000D02*
X138379000Y-68241000D01*
X138419000Y-65759000D02*
X138419000Y-62361000D01*
X138419000Y-71639000D02*
X138419000Y-68241000D01*
X138459000Y-65759000D02*
X138459000Y-62343000D01*
X138459000Y-71657000D02*
X138459000Y-68241000D01*
X138499000Y-65759000D02*
X138499000Y-62326000D01*
X138499000Y-71674000D02*
X138499000Y-68241000D01*
X138539000Y-65759000D02*
X138539000Y-62310000D01*
X138539000Y-71690000D02*
X138539000Y-68241000D01*
X138579000Y-65759000D02*
X138579000Y-62293000D01*
X138579000Y-71707000D02*
X138579000Y-68241000D01*
X138619000Y-65759000D02*
X138619000Y-62277000D01*
X138619000Y-71723000D02*
X138619000Y-68241000D01*
X138659000Y-65759000D02*
X138659000Y-62262000D01*
X138659000Y-71738000D02*
X138659000Y-68241000D01*
X138699000Y-65759000D02*
X138699000Y-62246000D01*
X138699000Y-71754000D02*
X138699000Y-68241000D01*
X138739000Y-65759000D02*
X138739000Y-62232000D01*
X138739000Y-71768000D02*
X138739000Y-68241000D01*
X138779000Y-65759000D02*
X138779000Y-62217000D01*
X138779000Y-71783000D02*
X138779000Y-68241000D01*
X138819000Y-65759000D02*
X138819000Y-62203000D01*
X138819000Y-71797000D02*
X138819000Y-68241000D01*
X138859000Y-65759000D02*
X138859000Y-62189000D01*
X138859000Y-71811000D02*
X138859000Y-68241000D01*
X138899000Y-65759000D02*
X138899000Y-62176000D01*
X138899000Y-71824000D02*
X138899000Y-68241000D01*
X138939000Y-65759000D02*
X138939000Y-62163000D01*
X138939000Y-71837000D02*
X138939000Y-68241000D01*
X138979000Y-65759000D02*
X138979000Y-62150000D01*
X138979000Y-71850000D02*
X138979000Y-68241000D01*
X139019000Y-65759000D02*
X139019000Y-62138000D01*
X139019000Y-71862000D02*
X139019000Y-68241000D01*
X139059000Y-65759000D02*
X139059000Y-62126000D01*
X139059000Y-71874000D02*
X139059000Y-68241000D01*
X139099000Y-65759000D02*
X139099000Y-62115000D01*
X139099000Y-71885000D02*
X139099000Y-68241000D01*
X139139000Y-65759000D02*
X139139000Y-62103000D01*
X139139000Y-71897000D02*
X139139000Y-68241000D01*
X139179000Y-65759000D02*
X139179000Y-62093000D01*
X139179000Y-71907000D02*
X139179000Y-68241000D01*
X139219000Y-65759000D02*
X139219000Y-62082000D01*
X139219000Y-71918000D02*
X139219000Y-68241000D01*
X139259000Y-71928000D02*
X139259000Y-62072000D01*
X139299000Y-71938000D02*
X139299000Y-62062000D01*
X139339000Y-71947000D02*
X139339000Y-62053000D01*
X139379000Y-71956000D02*
X139379000Y-62044000D01*
X139419000Y-71965000D02*
X139419000Y-62035000D01*
X139459000Y-71974000D02*
X139459000Y-62026000D01*
X139499000Y-71982000D02*
X139499000Y-62018000D01*
X139539000Y-71990000D02*
X139539000Y-62010000D01*
X139579000Y-71997000D02*
X139579000Y-62003000D01*
X139619000Y-72004000D02*
X139619000Y-61996000D01*
X139659000Y-72011000D02*
X139659000Y-61989000D01*
X139699000Y-72018000D02*
X139699000Y-61982000D01*
X139739000Y-72024000D02*
X139739000Y-61976000D01*
X139779000Y-72030000D02*
X139779000Y-61970000D01*
X139820000Y-72035000D02*
X139820000Y-61965000D01*
X139860000Y-72040000D02*
X139860000Y-61960000D01*
X139900000Y-72045000D02*
X139900000Y-61955000D01*
X139940000Y-72050000D02*
X139940000Y-61950000D01*
X139980000Y-72054000D02*
X139980000Y-61946000D01*
X140020000Y-72058000D02*
X140020000Y-61942000D01*
X140060000Y-72062000D02*
X140060000Y-61938000D01*
X140100000Y-72065000D02*
X140100000Y-61935000D01*
X140140000Y-72068000D02*
X140140000Y-61932000D01*
X140180000Y-72070000D02*
X140180000Y-61930000D01*
X140220000Y-72073000D02*
X140220000Y-61927000D01*
X140260000Y-72075000D02*
X140260000Y-61925000D01*
X140300000Y-72077000D02*
X140300000Y-61923000D01*
X140340000Y-72078000D02*
X140340000Y-61922000D01*
X140380000Y-72079000D02*
X140380000Y-61921000D01*
X140420000Y-72080000D02*
X140420000Y-61920000D01*
X140460000Y-72080000D02*
X140460000Y-61920000D01*
X140500000Y-72080000D02*
X140500000Y-61920000D01*
X145620000Y-67000000D02*
G75*
G03*
X145620000Y-67000000I-5120000J0D01*
G01*
%TO.C,C2*%
X131620000Y-67000000D02*
G75*
G03*
X131620000Y-67000000I-5120000J0D01*
G01*
X126500000Y-72080000D02*
X126500000Y-61920000D01*
X126460000Y-72080000D02*
X126460000Y-61920000D01*
X126420000Y-72080000D02*
X126420000Y-61920000D01*
X126380000Y-72079000D02*
X126380000Y-61921000D01*
X126340000Y-72078000D02*
X126340000Y-61922000D01*
X126300000Y-72077000D02*
X126300000Y-61923000D01*
X126260000Y-72075000D02*
X126260000Y-61925000D01*
X126220000Y-72073000D02*
X126220000Y-61927000D01*
X126180000Y-72070000D02*
X126180000Y-61930000D01*
X126140000Y-72068000D02*
X126140000Y-61932000D01*
X126100000Y-72065000D02*
X126100000Y-61935000D01*
X126060000Y-72062000D02*
X126060000Y-61938000D01*
X126020000Y-72058000D02*
X126020000Y-61942000D01*
X125980000Y-72054000D02*
X125980000Y-61946000D01*
X125940000Y-72050000D02*
X125940000Y-61950000D01*
X125900000Y-72045000D02*
X125900000Y-61955000D01*
X125860000Y-72040000D02*
X125860000Y-61960000D01*
X125820000Y-72035000D02*
X125820000Y-61965000D01*
X125779000Y-72030000D02*
X125779000Y-61970000D01*
X125739000Y-72024000D02*
X125739000Y-61976000D01*
X125699000Y-72018000D02*
X125699000Y-61982000D01*
X125659000Y-72011000D02*
X125659000Y-61989000D01*
X125619000Y-72004000D02*
X125619000Y-61996000D01*
X125579000Y-71997000D02*
X125579000Y-62003000D01*
X125539000Y-71990000D02*
X125539000Y-62010000D01*
X125499000Y-71982000D02*
X125499000Y-62018000D01*
X125459000Y-71974000D02*
X125459000Y-62026000D01*
X125419000Y-71965000D02*
X125419000Y-62035000D01*
X125379000Y-71956000D02*
X125379000Y-62044000D01*
X125339000Y-71947000D02*
X125339000Y-62053000D01*
X125299000Y-71938000D02*
X125299000Y-62062000D01*
X125259000Y-71928000D02*
X125259000Y-62072000D01*
X125219000Y-71918000D02*
X125219000Y-68241000D01*
X125219000Y-65759000D02*
X125219000Y-62082000D01*
X125179000Y-71907000D02*
X125179000Y-68241000D01*
X125179000Y-65759000D02*
X125179000Y-62093000D01*
X125139000Y-71897000D02*
X125139000Y-68241000D01*
X125139000Y-65759000D02*
X125139000Y-62103000D01*
X125099000Y-71885000D02*
X125099000Y-68241000D01*
X125099000Y-65759000D02*
X125099000Y-62115000D01*
X125059000Y-71874000D02*
X125059000Y-68241000D01*
X125059000Y-65759000D02*
X125059000Y-62126000D01*
X125019000Y-71862000D02*
X125019000Y-68241000D01*
X125019000Y-65759000D02*
X125019000Y-62138000D01*
X124979000Y-71850000D02*
X124979000Y-68241000D01*
X124979000Y-65759000D02*
X124979000Y-62150000D01*
X124939000Y-71837000D02*
X124939000Y-68241000D01*
X124939000Y-65759000D02*
X124939000Y-62163000D01*
X124899000Y-71824000D02*
X124899000Y-68241000D01*
X124899000Y-65759000D02*
X124899000Y-62176000D01*
X124859000Y-71811000D02*
X124859000Y-68241000D01*
X124859000Y-65759000D02*
X124859000Y-62189000D01*
X124819000Y-71797000D02*
X124819000Y-68241000D01*
X124819000Y-65759000D02*
X124819000Y-62203000D01*
X124779000Y-71783000D02*
X124779000Y-68241000D01*
X124779000Y-65759000D02*
X124779000Y-62217000D01*
X124739000Y-71768000D02*
X124739000Y-68241000D01*
X124739000Y-65759000D02*
X124739000Y-62232000D01*
X124699000Y-71754000D02*
X124699000Y-68241000D01*
X124699000Y-65759000D02*
X124699000Y-62246000D01*
X124659000Y-71738000D02*
X124659000Y-68241000D01*
X124659000Y-65759000D02*
X124659000Y-62262000D01*
X124619000Y-71723000D02*
X124619000Y-68241000D01*
X124619000Y-65759000D02*
X124619000Y-62277000D01*
X124579000Y-71707000D02*
X124579000Y-68241000D01*
X124579000Y-65759000D02*
X124579000Y-62293000D01*
X124539000Y-71690000D02*
X124539000Y-68241000D01*
X124539000Y-65759000D02*
X124539000Y-62310000D01*
X124499000Y-71674000D02*
X124499000Y-68241000D01*
X124499000Y-65759000D02*
X124499000Y-62326000D01*
X124459000Y-71657000D02*
X124459000Y-68241000D01*
X124459000Y-65759000D02*
X124459000Y-62343000D01*
X124419000Y-71639000D02*
X124419000Y-68241000D01*
X124419000Y-65759000D02*
X124419000Y-62361000D01*
X124379000Y-71621000D02*
X124379000Y-68241000D01*
X124379000Y-65759000D02*
X124379000Y-62379000D01*
X124339000Y-71603000D02*
X124339000Y-68241000D01*
X124339000Y-65759000D02*
X124339000Y-62397000D01*
X124299000Y-71584000D02*
X124299000Y-68241000D01*
X124299000Y-65759000D02*
X124299000Y-62416000D01*
X124259000Y-71564000D02*
X124259000Y-68241000D01*
X124259000Y-65759000D02*
X124259000Y-62436000D01*
X124219000Y-71545000D02*
X124219000Y-68241000D01*
X124219000Y-65759000D02*
X124219000Y-62455000D01*
X124179000Y-71525000D02*
X124179000Y-68241000D01*
X124179000Y-65759000D02*
X124179000Y-62475000D01*
X124139000Y-71504000D02*
X124139000Y-68241000D01*
X124139000Y-65759000D02*
X124139000Y-62496000D01*
X124099000Y-71483000D02*
X124099000Y-68241000D01*
X124099000Y-65759000D02*
X124099000Y-62517000D01*
X124059000Y-71462000D02*
X124059000Y-68241000D01*
X124059000Y-65759000D02*
X124059000Y-62538000D01*
X124019000Y-71440000D02*
X124019000Y-68241000D01*
X124019000Y-65759000D02*
X124019000Y-62560000D01*
X123979000Y-71417000D02*
X123979000Y-68241000D01*
X123979000Y-65759000D02*
X123979000Y-62583000D01*
X123939000Y-71395000D02*
X123939000Y-68241000D01*
X123939000Y-65759000D02*
X123939000Y-62605000D01*
X123899000Y-71371000D02*
X123899000Y-68241000D01*
X123899000Y-65759000D02*
X123899000Y-62629000D01*
X123859000Y-71347000D02*
X123859000Y-68241000D01*
X123859000Y-65759000D02*
X123859000Y-62653000D01*
X123819000Y-71323000D02*
X123819000Y-68241000D01*
X123819000Y-65759000D02*
X123819000Y-62677000D01*
X123779000Y-71298000D02*
X123779000Y-68241000D01*
X123779000Y-65759000D02*
X123779000Y-62702000D01*
X123739000Y-71273000D02*
X123739000Y-68241000D01*
X123739000Y-65759000D02*
X123739000Y-62727000D01*
X123699000Y-71247000D02*
X123699000Y-68241000D01*
X123699000Y-65759000D02*
X123699000Y-62753000D01*
X123659000Y-71221000D02*
X123659000Y-68241000D01*
X123659000Y-65759000D02*
X123659000Y-62779000D01*
X123619000Y-71194000D02*
X123619000Y-68241000D01*
X123619000Y-65759000D02*
X123619000Y-62806000D01*
X123579000Y-71166000D02*
X123579000Y-68241000D01*
X123579000Y-65759000D02*
X123579000Y-62834000D01*
X123539000Y-71138000D02*
X123539000Y-68241000D01*
X123539000Y-65759000D02*
X123539000Y-62862000D01*
X123499000Y-71110000D02*
X123499000Y-68241000D01*
X123499000Y-65759000D02*
X123499000Y-62890000D01*
X123459000Y-71080000D02*
X123459000Y-68241000D01*
X123459000Y-65759000D02*
X123459000Y-62920000D01*
X123419000Y-71050000D02*
X123419000Y-68241000D01*
X123419000Y-65759000D02*
X123419000Y-62950000D01*
X123379000Y-71020000D02*
X123379000Y-68241000D01*
X123379000Y-65759000D02*
X123379000Y-62980000D01*
X123339000Y-70989000D02*
X123339000Y-68241000D01*
X123339000Y-65759000D02*
X123339000Y-63011000D01*
X123299000Y-70957000D02*
X123299000Y-68241000D01*
X123299000Y-65759000D02*
X123299000Y-63043000D01*
X123259000Y-70925000D02*
X123259000Y-68241000D01*
X123259000Y-65759000D02*
X123259000Y-63075000D01*
X123219000Y-70892000D02*
X123219000Y-68241000D01*
X123219000Y-65759000D02*
X123219000Y-63108000D01*
X123179000Y-70858000D02*
X123179000Y-68241000D01*
X123179000Y-65759000D02*
X123179000Y-63142000D01*
X123139000Y-70824000D02*
X123139000Y-68241000D01*
X123139000Y-65759000D02*
X123139000Y-63176000D01*
X123099000Y-70789000D02*
X123099000Y-68241000D01*
X123099000Y-65759000D02*
X123099000Y-63211000D01*
X123059000Y-70753000D02*
X123059000Y-68241000D01*
X123059000Y-65759000D02*
X123059000Y-63247000D01*
X123019000Y-70716000D02*
X123019000Y-68241000D01*
X123019000Y-65759000D02*
X123019000Y-63284000D01*
X122979000Y-70679000D02*
X122979000Y-68241000D01*
X122979000Y-65759000D02*
X122979000Y-63321000D01*
X122939000Y-70640000D02*
X122939000Y-68241000D01*
X122939000Y-65759000D02*
X122939000Y-63360000D01*
X122899000Y-70601000D02*
X122899000Y-68241000D01*
X122899000Y-65759000D02*
X122899000Y-63399000D01*
X122859000Y-70561000D02*
X122859000Y-68241000D01*
X122859000Y-65759000D02*
X122859000Y-63439000D01*
X122819000Y-70520000D02*
X122819000Y-68241000D01*
X122819000Y-65759000D02*
X122819000Y-63480000D01*
X122779000Y-70478000D02*
X122779000Y-68241000D01*
X122779000Y-65759000D02*
X122779000Y-63522000D01*
X122739000Y-70436000D02*
X122739000Y-63564000D01*
X122699000Y-70392000D02*
X122699000Y-63608000D01*
X122659000Y-70347000D02*
X122659000Y-63653000D01*
X122619000Y-70301000D02*
X122619000Y-63699000D01*
X122579000Y-70254000D02*
X122579000Y-63746000D01*
X122539000Y-70206000D02*
X122539000Y-63794000D01*
X122499000Y-70156000D02*
X122499000Y-63844000D01*
X122459000Y-70106000D02*
X122459000Y-63894000D01*
X122419000Y-70054000D02*
X122419000Y-63946000D01*
X122379000Y-70000000D02*
X122379000Y-64000000D01*
X122339000Y-69945000D02*
X122339000Y-64055000D01*
X122299000Y-69889000D02*
X122299000Y-64111000D01*
X122259000Y-69830000D02*
X122259000Y-64170000D01*
X122219000Y-69770000D02*
X122219000Y-64230000D01*
X122179000Y-69709000D02*
X122179000Y-64291000D01*
X122139000Y-69645000D02*
X122139000Y-64355000D01*
X122099000Y-69579000D02*
X122099000Y-64421000D01*
X122059000Y-69510000D02*
X122059000Y-64490000D01*
X122019000Y-69439000D02*
X122019000Y-64561000D01*
X121979000Y-69365000D02*
X121979000Y-64635000D01*
X121939000Y-69289000D02*
X121939000Y-64711000D01*
X121899000Y-69209000D02*
X121899000Y-64791000D01*
X121859000Y-69125000D02*
X121859000Y-64875000D01*
X121819000Y-69037000D02*
X121819000Y-64963000D01*
X121779000Y-68944000D02*
X121779000Y-65056000D01*
X121739000Y-68846000D02*
X121739000Y-65154000D01*
X121699000Y-68742000D02*
X121699000Y-65258000D01*
X121659000Y-68630000D02*
X121659000Y-65370000D01*
X121619000Y-68510000D02*
X121619000Y-65490000D01*
X121579000Y-68378000D02*
X121579000Y-65622000D01*
X121539000Y-68230000D02*
X121539000Y-65770000D01*
X121499000Y-68062000D02*
X121499000Y-65938000D01*
X121459000Y-67862000D02*
X121459000Y-66138000D01*
X121419000Y-67599000D02*
X121419000Y-66401000D01*
X131979646Y-69875000D02*
X130979646Y-69875000D01*
X131479646Y-70375000D02*
X131479646Y-69375000D01*
%TO.C,C5*%
X70140580Y-133510000D02*
X69859420Y-133510000D01*
X70140580Y-132490000D02*
X69859420Y-132490000D01*
%TO.C,C6*%
X100140580Y-133510000D02*
X99859420Y-133510000D01*
X100140580Y-132490000D02*
X99859420Y-132490000D01*
%TO.C,C7*%
X130140580Y-132490000D02*
X129859420Y-132490000D01*
X130140580Y-133510000D02*
X129859420Y-133510000D01*
%TO.C,C10*%
X143935241Y-87154000D02*
X143935241Y-86524000D01*
X144250241Y-86839000D02*
X143620241Y-86839000D01*
X137509000Y-85402000D02*
X137509000Y-84598000D01*
X137549000Y-85633000D02*
X137549000Y-84367000D01*
X137589000Y-85802000D02*
X137589000Y-84198000D01*
X137629000Y-85940000D02*
X137629000Y-84060000D01*
X137669000Y-86059000D02*
X137669000Y-83941000D01*
X137709000Y-86165000D02*
X137709000Y-83835000D01*
X137749000Y-86262000D02*
X137749000Y-83738000D01*
X137789000Y-86350000D02*
X137789000Y-83650000D01*
X137829000Y-86432000D02*
X137829000Y-83568000D01*
X137869000Y-86509000D02*
X137869000Y-83491000D01*
X137909000Y-86581000D02*
X137909000Y-83419000D01*
X137949000Y-86650000D02*
X137949000Y-83350000D01*
X137989000Y-86714000D02*
X137989000Y-83286000D01*
X138029000Y-86776000D02*
X138029000Y-83224000D01*
X138069000Y-86834000D02*
X138069000Y-83166000D01*
X138109000Y-86890000D02*
X138109000Y-83110000D01*
X138149000Y-86944000D02*
X138149000Y-83056000D01*
X138189000Y-86995000D02*
X138189000Y-83005000D01*
X138229000Y-87044000D02*
X138229000Y-82956000D01*
X138269000Y-87092000D02*
X138269000Y-82908000D01*
X138309000Y-87137000D02*
X138309000Y-82863000D01*
X138349000Y-87182000D02*
X138349000Y-82818000D01*
X138389000Y-87224000D02*
X138389000Y-82776000D01*
X138429000Y-87265000D02*
X138429000Y-82735000D01*
X138469000Y-83960000D02*
X138469000Y-82695000D01*
X138469000Y-87305000D02*
X138469000Y-86040000D01*
X138509000Y-83960000D02*
X138509000Y-82657000D01*
X138509000Y-87343000D02*
X138509000Y-86040000D01*
X138549000Y-83960000D02*
X138549000Y-82620000D01*
X138549000Y-87380000D02*
X138549000Y-86040000D01*
X138589000Y-83960000D02*
X138589000Y-82584000D01*
X138589000Y-87416000D02*
X138589000Y-86040000D01*
X138629000Y-83960000D02*
X138629000Y-82550000D01*
X138629000Y-87450000D02*
X138629000Y-86040000D01*
X138669000Y-83960000D02*
X138669000Y-82516000D01*
X138669000Y-87484000D02*
X138669000Y-86040000D01*
X138709000Y-83960000D02*
X138709000Y-82484000D01*
X138709000Y-87516000D02*
X138709000Y-86040000D01*
X138749000Y-83960000D02*
X138749000Y-82452000D01*
X138749000Y-87548000D02*
X138749000Y-86040000D01*
X138789000Y-83960000D02*
X138789000Y-82422000D01*
X138789000Y-87578000D02*
X138789000Y-86040000D01*
X138829000Y-83960000D02*
X138829000Y-82393000D01*
X138829000Y-87607000D02*
X138829000Y-86040000D01*
X138869000Y-83960000D02*
X138869000Y-82364000D01*
X138869000Y-87636000D02*
X138869000Y-86040000D01*
X138909000Y-83960000D02*
X138909000Y-82336000D01*
X138909000Y-87664000D02*
X138909000Y-86040000D01*
X138949000Y-83960000D02*
X138949000Y-82310000D01*
X138949000Y-87690000D02*
X138949000Y-86040000D01*
X138989000Y-83960000D02*
X138989000Y-82284000D01*
X138989000Y-87716000D02*
X138989000Y-86040000D01*
X139029000Y-83960000D02*
X139029000Y-82258000D01*
X139029000Y-87742000D02*
X139029000Y-86040000D01*
X139069000Y-83960000D02*
X139069000Y-82234000D01*
X139069000Y-87766000D02*
X139069000Y-86040000D01*
X139109000Y-83960000D02*
X139109000Y-82210000D01*
X139109000Y-87790000D02*
X139109000Y-86040000D01*
X139149000Y-83960000D02*
X139149000Y-82188000D01*
X139149000Y-87812000D02*
X139149000Y-86040000D01*
X139189000Y-83960000D02*
X139189000Y-82166000D01*
X139189000Y-87834000D02*
X139189000Y-86040000D01*
X139229000Y-83960000D02*
X139229000Y-82144000D01*
X139229000Y-87856000D02*
X139229000Y-86040000D01*
X139269000Y-83960000D02*
X139269000Y-82124000D01*
X139269000Y-87876000D02*
X139269000Y-86040000D01*
X139309000Y-83960000D02*
X139309000Y-82104000D01*
X139309000Y-87896000D02*
X139309000Y-86040000D01*
X139349000Y-83960000D02*
X139349000Y-82084000D01*
X139349000Y-87916000D02*
X139349000Y-86040000D01*
X139389000Y-83960000D02*
X139389000Y-82066000D01*
X139389000Y-87934000D02*
X139389000Y-86040000D01*
X139429000Y-83960000D02*
X139429000Y-82048000D01*
X139429000Y-87952000D02*
X139429000Y-86040000D01*
X139469000Y-83960000D02*
X139469000Y-82030000D01*
X139469000Y-87970000D02*
X139469000Y-86040000D01*
X139509000Y-83960000D02*
X139509000Y-82014000D01*
X139509000Y-87986000D02*
X139509000Y-86040000D01*
X139549000Y-83960000D02*
X139549000Y-81998000D01*
X139549000Y-88002000D02*
X139549000Y-86040000D01*
X139589000Y-83960000D02*
X139589000Y-81982000D01*
X139589000Y-88018000D02*
X139589000Y-86040000D01*
X139629000Y-83960000D02*
X139629000Y-81967000D01*
X139629000Y-88033000D02*
X139629000Y-86040000D01*
X139669000Y-83960000D02*
X139669000Y-81953000D01*
X139669000Y-88047000D02*
X139669000Y-86040000D01*
X139709000Y-83960000D02*
X139709000Y-81939000D01*
X139709000Y-88061000D02*
X139709000Y-86040000D01*
X139749000Y-83960000D02*
X139749000Y-81926000D01*
X139749000Y-88074000D02*
X139749000Y-86040000D01*
X139789000Y-83960000D02*
X139789000Y-81914000D01*
X139789000Y-88086000D02*
X139789000Y-86040000D01*
X139829000Y-83960000D02*
X139829000Y-81902000D01*
X139829000Y-88098000D02*
X139829000Y-86040000D01*
X139869000Y-83960000D02*
X139869000Y-81890000D01*
X139869000Y-88110000D02*
X139869000Y-86040000D01*
X139909000Y-83960000D02*
X139909000Y-81879000D01*
X139909000Y-88121000D02*
X139909000Y-86040000D01*
X139949000Y-83960000D02*
X139949000Y-81869000D01*
X139949000Y-88131000D02*
X139949000Y-86040000D01*
X139989000Y-83960000D02*
X139989000Y-81859000D01*
X139989000Y-88141000D02*
X139989000Y-86040000D01*
X140029000Y-83960000D02*
X140029000Y-81850000D01*
X140029000Y-88150000D02*
X140029000Y-86040000D01*
X140070000Y-83960000D02*
X140070000Y-81841000D01*
X140070000Y-88159000D02*
X140070000Y-86040000D01*
X140110000Y-83960000D02*
X140110000Y-81833000D01*
X140110000Y-88167000D02*
X140110000Y-86040000D01*
X140150000Y-83960000D02*
X140150000Y-81825000D01*
X140150000Y-88175000D02*
X140150000Y-86040000D01*
X140190000Y-83960000D02*
X140190000Y-81818000D01*
X140190000Y-88182000D02*
X140190000Y-86040000D01*
X140230000Y-83960000D02*
X140230000Y-81811000D01*
X140230000Y-88189000D02*
X140230000Y-86040000D01*
X140270000Y-83960000D02*
X140270000Y-81805000D01*
X140270000Y-88195000D02*
X140270000Y-86040000D01*
X140310000Y-83960000D02*
X140310000Y-81799000D01*
X140310000Y-88201000D02*
X140310000Y-86040000D01*
X140350000Y-83960000D02*
X140350000Y-81794000D01*
X140350000Y-88206000D02*
X140350000Y-86040000D01*
X140390000Y-83960000D02*
X140390000Y-81789000D01*
X140390000Y-88211000D02*
X140390000Y-86040000D01*
X140430000Y-83960000D02*
X140430000Y-81785000D01*
X140430000Y-88215000D02*
X140430000Y-86040000D01*
X140470000Y-83960000D02*
X140470000Y-81782000D01*
X140470000Y-88218000D02*
X140470000Y-86040000D01*
X140510000Y-83960000D02*
X140510000Y-81778000D01*
X140510000Y-88222000D02*
X140510000Y-86040000D01*
X140550000Y-88224000D02*
X140550000Y-81776000D01*
X140590000Y-88227000D02*
X140590000Y-81773000D01*
X140630000Y-88228000D02*
X140630000Y-81772000D01*
X140670000Y-88230000D02*
X140670000Y-81770000D01*
X140710000Y-88230000D02*
X140710000Y-81770000D01*
X140750000Y-88230000D02*
X140750000Y-81770000D01*
X144020000Y-85000000D02*
G75*
G03*
X144020000Y-85000000I-3270000J0D01*
G01*
%TO.C,C11*%
X130020000Y-85000000D02*
G75*
G03*
X130020000Y-85000000I-3270000J0D01*
G01*
X126750000Y-88230000D02*
X126750000Y-81770000D01*
X126710000Y-88230000D02*
X126710000Y-81770000D01*
X126670000Y-88230000D02*
X126670000Y-81770000D01*
X126630000Y-88228000D02*
X126630000Y-81772000D01*
X126590000Y-88227000D02*
X126590000Y-81773000D01*
X126550000Y-88224000D02*
X126550000Y-81776000D01*
X126510000Y-88222000D02*
X126510000Y-86040000D01*
X126510000Y-83960000D02*
X126510000Y-81778000D01*
X126470000Y-88218000D02*
X126470000Y-86040000D01*
X126470000Y-83960000D02*
X126470000Y-81782000D01*
X126430000Y-88215000D02*
X126430000Y-86040000D01*
X126430000Y-83960000D02*
X126430000Y-81785000D01*
X126390000Y-88211000D02*
X126390000Y-86040000D01*
X126390000Y-83960000D02*
X126390000Y-81789000D01*
X126350000Y-88206000D02*
X126350000Y-86040000D01*
X126350000Y-83960000D02*
X126350000Y-81794000D01*
X126310000Y-88201000D02*
X126310000Y-86040000D01*
X126310000Y-83960000D02*
X126310000Y-81799000D01*
X126270000Y-88195000D02*
X126270000Y-86040000D01*
X126270000Y-83960000D02*
X126270000Y-81805000D01*
X126230000Y-88189000D02*
X126230000Y-86040000D01*
X126230000Y-83960000D02*
X126230000Y-81811000D01*
X126190000Y-88182000D02*
X126190000Y-86040000D01*
X126190000Y-83960000D02*
X126190000Y-81818000D01*
X126150000Y-88175000D02*
X126150000Y-86040000D01*
X126150000Y-83960000D02*
X126150000Y-81825000D01*
X126110000Y-88167000D02*
X126110000Y-86040000D01*
X126110000Y-83960000D02*
X126110000Y-81833000D01*
X126070000Y-88159000D02*
X126070000Y-86040000D01*
X126070000Y-83960000D02*
X126070000Y-81841000D01*
X126029000Y-88150000D02*
X126029000Y-86040000D01*
X126029000Y-83960000D02*
X126029000Y-81850000D01*
X125989000Y-88141000D02*
X125989000Y-86040000D01*
X125989000Y-83960000D02*
X125989000Y-81859000D01*
X125949000Y-88131000D02*
X125949000Y-86040000D01*
X125949000Y-83960000D02*
X125949000Y-81869000D01*
X125909000Y-88121000D02*
X125909000Y-86040000D01*
X125909000Y-83960000D02*
X125909000Y-81879000D01*
X125869000Y-88110000D02*
X125869000Y-86040000D01*
X125869000Y-83960000D02*
X125869000Y-81890000D01*
X125829000Y-88098000D02*
X125829000Y-86040000D01*
X125829000Y-83960000D02*
X125829000Y-81902000D01*
X125789000Y-88086000D02*
X125789000Y-86040000D01*
X125789000Y-83960000D02*
X125789000Y-81914000D01*
X125749000Y-88074000D02*
X125749000Y-86040000D01*
X125749000Y-83960000D02*
X125749000Y-81926000D01*
X125709000Y-88061000D02*
X125709000Y-86040000D01*
X125709000Y-83960000D02*
X125709000Y-81939000D01*
X125669000Y-88047000D02*
X125669000Y-86040000D01*
X125669000Y-83960000D02*
X125669000Y-81953000D01*
X125629000Y-88033000D02*
X125629000Y-86040000D01*
X125629000Y-83960000D02*
X125629000Y-81967000D01*
X125589000Y-88018000D02*
X125589000Y-86040000D01*
X125589000Y-83960000D02*
X125589000Y-81982000D01*
X125549000Y-88002000D02*
X125549000Y-86040000D01*
X125549000Y-83960000D02*
X125549000Y-81998000D01*
X125509000Y-87986000D02*
X125509000Y-86040000D01*
X125509000Y-83960000D02*
X125509000Y-82014000D01*
X125469000Y-87970000D02*
X125469000Y-86040000D01*
X125469000Y-83960000D02*
X125469000Y-82030000D01*
X125429000Y-87952000D02*
X125429000Y-86040000D01*
X125429000Y-83960000D02*
X125429000Y-82048000D01*
X125389000Y-87934000D02*
X125389000Y-86040000D01*
X125389000Y-83960000D02*
X125389000Y-82066000D01*
X125349000Y-87916000D02*
X125349000Y-86040000D01*
X125349000Y-83960000D02*
X125349000Y-82084000D01*
X125309000Y-87896000D02*
X125309000Y-86040000D01*
X125309000Y-83960000D02*
X125309000Y-82104000D01*
X125269000Y-87876000D02*
X125269000Y-86040000D01*
X125269000Y-83960000D02*
X125269000Y-82124000D01*
X125229000Y-87856000D02*
X125229000Y-86040000D01*
X125229000Y-83960000D02*
X125229000Y-82144000D01*
X125189000Y-87834000D02*
X125189000Y-86040000D01*
X125189000Y-83960000D02*
X125189000Y-82166000D01*
X125149000Y-87812000D02*
X125149000Y-86040000D01*
X125149000Y-83960000D02*
X125149000Y-82188000D01*
X125109000Y-87790000D02*
X125109000Y-86040000D01*
X125109000Y-83960000D02*
X125109000Y-82210000D01*
X125069000Y-87766000D02*
X125069000Y-86040000D01*
X125069000Y-83960000D02*
X125069000Y-82234000D01*
X125029000Y-87742000D02*
X125029000Y-86040000D01*
X125029000Y-83960000D02*
X125029000Y-82258000D01*
X124989000Y-87716000D02*
X124989000Y-86040000D01*
X124989000Y-83960000D02*
X124989000Y-82284000D01*
X124949000Y-87690000D02*
X124949000Y-86040000D01*
X124949000Y-83960000D02*
X124949000Y-82310000D01*
X124909000Y-87664000D02*
X124909000Y-86040000D01*
X124909000Y-83960000D02*
X124909000Y-82336000D01*
X124869000Y-87636000D02*
X124869000Y-86040000D01*
X124869000Y-83960000D02*
X124869000Y-82364000D01*
X124829000Y-87607000D02*
X124829000Y-86040000D01*
X124829000Y-83960000D02*
X124829000Y-82393000D01*
X124789000Y-87578000D02*
X124789000Y-86040000D01*
X124789000Y-83960000D02*
X124789000Y-82422000D01*
X124749000Y-87548000D02*
X124749000Y-86040000D01*
X124749000Y-83960000D02*
X124749000Y-82452000D01*
X124709000Y-87516000D02*
X124709000Y-86040000D01*
X124709000Y-83960000D02*
X124709000Y-82484000D01*
X124669000Y-87484000D02*
X124669000Y-86040000D01*
X124669000Y-83960000D02*
X124669000Y-82516000D01*
X124629000Y-87450000D02*
X124629000Y-86040000D01*
X124629000Y-83960000D02*
X124629000Y-82550000D01*
X124589000Y-87416000D02*
X124589000Y-86040000D01*
X124589000Y-83960000D02*
X124589000Y-82584000D01*
X124549000Y-87380000D02*
X124549000Y-86040000D01*
X124549000Y-83960000D02*
X124549000Y-82620000D01*
X124509000Y-87343000D02*
X124509000Y-86040000D01*
X124509000Y-83960000D02*
X124509000Y-82657000D01*
X124469000Y-87305000D02*
X124469000Y-86040000D01*
X124469000Y-83960000D02*
X124469000Y-82695000D01*
X124429000Y-87265000D02*
X124429000Y-82735000D01*
X124389000Y-87224000D02*
X124389000Y-82776000D01*
X124349000Y-87182000D02*
X124349000Y-82818000D01*
X124309000Y-87137000D02*
X124309000Y-82863000D01*
X124269000Y-87092000D02*
X124269000Y-82908000D01*
X124229000Y-87044000D02*
X124229000Y-82956000D01*
X124189000Y-86995000D02*
X124189000Y-83005000D01*
X124149000Y-86944000D02*
X124149000Y-83056000D01*
X124109000Y-86890000D02*
X124109000Y-83110000D01*
X124069000Y-86834000D02*
X124069000Y-83166000D01*
X124029000Y-86776000D02*
X124029000Y-83224000D01*
X123989000Y-86714000D02*
X123989000Y-83286000D01*
X123949000Y-86650000D02*
X123949000Y-83350000D01*
X123909000Y-86581000D02*
X123909000Y-83419000D01*
X123869000Y-86509000D02*
X123869000Y-83491000D01*
X123829000Y-86432000D02*
X123829000Y-83568000D01*
X123789000Y-86350000D02*
X123789000Y-83650000D01*
X123749000Y-86262000D02*
X123749000Y-83738000D01*
X123709000Y-86165000D02*
X123709000Y-83835000D01*
X123669000Y-86059000D02*
X123669000Y-83941000D01*
X123629000Y-85940000D02*
X123629000Y-84060000D01*
X123589000Y-85802000D02*
X123589000Y-84198000D01*
X123549000Y-85633000D02*
X123549000Y-84367000D01*
X123509000Y-85402000D02*
X123509000Y-84598000D01*
X130250241Y-86839000D02*
X129620241Y-86839000D01*
X129935241Y-87154000D02*
X129935241Y-86524000D01*
%TO.C,C12*%
X65859420Y-111490000D02*
X66140580Y-111490000D01*
X65859420Y-112510000D02*
X66140580Y-112510000D01*
%TO.C,C13*%
X95859420Y-111490000D02*
X96140580Y-111490000D01*
X95859420Y-112510000D02*
X96140580Y-112510000D01*
%TO.C,C14*%
X125859420Y-112510000D02*
X126140580Y-112510000D01*
X125859420Y-111490000D02*
X126140580Y-111490000D01*
%TO.C,D1*%
X127200000Y-58300000D02*
X127900000Y-58300000D01*
X127900000Y-58300000D02*
X127900000Y-53200000D01*
X127900000Y-53200000D02*
X125000000Y-53200000D01*
X125000000Y-53200000D02*
X125000000Y-58300000D01*
X125000000Y-58300000D02*
X125800000Y-58300000D01*
X125800000Y-58300000D02*
G75*
G02*
X127200000Y-58300000I700000J0D01*
G01*
%TO.C,F1*%
X75800000Y-76000000D02*
X82200000Y-76000000D01*
X82200000Y-76000000D02*
X82200000Y-82300000D01*
X82200000Y-82300000D02*
X75800000Y-82300000D01*
X75800000Y-82300000D02*
X75800000Y-76000000D01*
X82200000Y-59700000D02*
X82200000Y-66000000D01*
X75800000Y-59700000D02*
X82200000Y-59700000D01*
X75800000Y-66000000D02*
X75800000Y-59700000D01*
X82200000Y-66000000D02*
X75800000Y-66000000D01*
%TO.C,J1*%
X64620000Y-96970000D02*
X64620000Y-102990000D01*
X64620000Y-102990000D02*
X75000000Y-102990000D01*
X75000000Y-102990000D02*
X75000000Y-96970000D01*
X75000000Y-96970000D02*
X64620000Y-96970000D01*
X64330000Y-98000000D02*
X64330000Y-102000000D01*
X66000000Y-102990000D02*
X66000000Y-101990000D01*
X66000000Y-101990000D02*
X73620000Y-101990000D01*
X73620000Y-101990000D02*
X73620000Y-102990000D01*
X66000000Y-101990000D02*
X66250000Y-101460000D01*
X66250000Y-101460000D02*
X73370000Y-101460000D01*
X73370000Y-101460000D02*
X73620000Y-101990000D01*
X66250000Y-102990000D02*
X66250000Y-101990000D01*
X73370000Y-102990000D02*
X73370000Y-101990000D01*
X65200000Y-96970000D02*
X65200000Y-97570000D01*
X65200000Y-97570000D02*
X66800000Y-97570000D01*
X66800000Y-97570000D02*
X66800000Y-96970000D01*
X67740000Y-96970000D02*
X67740000Y-97570000D01*
X67740000Y-97570000D02*
X69340000Y-97570000D01*
X69340000Y-97570000D02*
X69340000Y-96970000D01*
X70280000Y-96970000D02*
X70280000Y-97570000D01*
X70280000Y-97570000D02*
X71880000Y-97570000D01*
X71880000Y-97570000D02*
X71880000Y-96970000D01*
X72820000Y-96970000D02*
X72820000Y-97570000D01*
X72820000Y-97570000D02*
X74420000Y-97570000D01*
X74420000Y-97570000D02*
X74420000Y-96970000D01*
%TO.C,J2*%
X104420000Y-97570000D02*
X104420000Y-96970000D01*
X102820000Y-97570000D02*
X104420000Y-97570000D01*
X102820000Y-96970000D02*
X102820000Y-97570000D01*
X101880000Y-97570000D02*
X101880000Y-96970000D01*
X100280000Y-97570000D02*
X101880000Y-97570000D01*
X100280000Y-96970000D02*
X100280000Y-97570000D01*
X99340000Y-97570000D02*
X99340000Y-96970000D01*
X97740000Y-97570000D02*
X99340000Y-97570000D01*
X97740000Y-96970000D02*
X97740000Y-97570000D01*
X96800000Y-97570000D02*
X96800000Y-96970000D01*
X95200000Y-97570000D02*
X96800000Y-97570000D01*
X95200000Y-96970000D02*
X95200000Y-97570000D01*
X103370000Y-102990000D02*
X103370000Y-101990000D01*
X96250000Y-102990000D02*
X96250000Y-101990000D01*
X103370000Y-101460000D02*
X103620000Y-101990000D01*
X96250000Y-101460000D02*
X103370000Y-101460000D01*
X96000000Y-101990000D02*
X96250000Y-101460000D01*
X103620000Y-101990000D02*
X103620000Y-102990000D01*
X96000000Y-101990000D02*
X103620000Y-101990000D01*
X96000000Y-102990000D02*
X96000000Y-101990000D01*
X94330000Y-98000000D02*
X94330000Y-102000000D01*
X105000000Y-96970000D02*
X94620000Y-96970000D01*
X105000000Y-102990000D02*
X105000000Y-96970000D01*
X94620000Y-102990000D02*
X105000000Y-102990000D01*
X94620000Y-96970000D02*
X94620000Y-102990000D01*
%TO.C,J3*%
X134420000Y-97570000D02*
X134420000Y-96970000D01*
X132820000Y-97570000D02*
X134420000Y-97570000D01*
X132820000Y-96970000D02*
X132820000Y-97570000D01*
X131880000Y-97570000D02*
X131880000Y-96970000D01*
X130280000Y-97570000D02*
X131880000Y-97570000D01*
X130280000Y-96970000D02*
X130280000Y-97570000D01*
X129340000Y-97570000D02*
X129340000Y-96970000D01*
X127740000Y-97570000D02*
X129340000Y-97570000D01*
X127740000Y-96970000D02*
X127740000Y-97570000D01*
X126800000Y-97570000D02*
X126800000Y-96970000D01*
X125200000Y-97570000D02*
X126800000Y-97570000D01*
X125200000Y-96970000D02*
X125200000Y-97570000D01*
X133370000Y-102990000D02*
X133370000Y-101990000D01*
X126250000Y-102990000D02*
X126250000Y-101990000D01*
X133370000Y-101460000D02*
X133620000Y-101990000D01*
X126250000Y-101460000D02*
X133370000Y-101460000D01*
X126000000Y-101990000D02*
X126250000Y-101460000D01*
X133620000Y-101990000D02*
X133620000Y-102990000D01*
X126000000Y-101990000D02*
X133620000Y-101990000D01*
X126000000Y-102990000D02*
X126000000Y-101990000D01*
X124330000Y-98000000D02*
X124330000Y-102000000D01*
X135000000Y-96970000D02*
X124620000Y-96970000D01*
X135000000Y-102990000D02*
X135000000Y-96970000D01*
X124620000Y-102990000D02*
X135000000Y-102990000D01*
X124620000Y-96970000D02*
X124620000Y-102990000D01*
%TO.C,J4*%
X69000000Y-141494800D02*
X71000000Y-141494800D01*
X73505200Y-144000000D02*
X73505200Y-146000000D01*
X71000000Y-148505200D02*
X69000000Y-148505200D01*
X66494800Y-146000000D02*
X66494800Y-144000000D01*
%TO.C,J5*%
X96494800Y-146000000D02*
X96494800Y-144000000D01*
X101000000Y-148505200D02*
X99000000Y-148505200D01*
X103505200Y-144000000D02*
X103505200Y-146000000D01*
X99000000Y-141494800D02*
X101000000Y-141494800D01*
%TO.C,J6*%
X126494800Y-146000000D02*
X126494800Y-144000000D01*
X131000000Y-148505200D02*
X129000000Y-148505200D01*
X133505200Y-144000000D02*
X133505200Y-146000000D01*
X129000000Y-141494800D02*
X131000000Y-141494800D01*
%TO.C,P1*%
X59500000Y-81300000D02*
X53000000Y-81300000D01*
X59500000Y-88500000D02*
X59500000Y-81300000D01*
X62500000Y-88500000D02*
X59500000Y-88500000D01*
X62500000Y-81300000D02*
X62500000Y-88500000D01*
X65000000Y-81300000D02*
X62500000Y-81300000D01*
X65000000Y-60700000D02*
X65000000Y-81300000D01*
X62500000Y-60700000D02*
X65000000Y-60700000D01*
X62500000Y-53500000D02*
X62500000Y-60700000D01*
X59500000Y-53500000D02*
X62500000Y-53500000D01*
X59500000Y-60700000D02*
X59500000Y-53500000D01*
X53000000Y-60700000D02*
X59500000Y-60700000D01*
X53000000Y-81300000D02*
X53000000Y-60700000D01*
%TO.C,R1*%
X71762742Y-107477500D02*
X72237258Y-107477500D01*
X71762742Y-108522500D02*
X72237258Y-108522500D01*
%TO.C,R2*%
X101762742Y-107477500D02*
X102237258Y-107477500D01*
X101762742Y-108522500D02*
X102237258Y-108522500D01*
%TO.C,R3*%
X131762742Y-108522500D02*
X132237258Y-108522500D01*
X131762742Y-107477500D02*
X132237258Y-107477500D01*
%TO.C,R4*%
X64762742Y-135477500D02*
X65237258Y-135477500D01*
X64762742Y-136522500D02*
X65237258Y-136522500D01*
%TO.C,R5*%
X65237258Y-132477500D02*
X64762742Y-132477500D01*
X65237258Y-133522500D02*
X64762742Y-133522500D01*
%TO.C,R6*%
X94762742Y-136522500D02*
X95237258Y-136522500D01*
X94762742Y-135477500D02*
X95237258Y-135477500D01*
%TO.C,R7*%
X95237258Y-133522500D02*
X94762742Y-133522500D01*
X95237258Y-132477500D02*
X94762742Y-132477500D01*
%TO.C,R8*%
X124762742Y-135477500D02*
X125237258Y-135477500D01*
X124762742Y-136522500D02*
X125237258Y-136522500D01*
%TO.C,R9*%
X125237258Y-133522500D02*
X124762742Y-133522500D01*
X125237258Y-132477500D02*
X124762742Y-132477500D01*
%TO.C,R10*%
X61477500Y-120237258D02*
X61477500Y-119762742D01*
X62522500Y-120237258D02*
X62522500Y-119762742D01*
%TO.C,R11*%
X65237258Y-129477500D02*
X64762742Y-129477500D01*
X65237258Y-130522500D02*
X64762742Y-130522500D01*
%TO.C,R12*%
X91477500Y-120237258D02*
X91477500Y-119762742D01*
X92522500Y-120237258D02*
X92522500Y-119762742D01*
%TO.C,R13*%
X95237258Y-129477500D02*
X94762742Y-129477500D01*
X95237258Y-130522500D02*
X94762742Y-130522500D01*
%TO.C,R14*%
X122522500Y-120237258D02*
X122522500Y-119762742D01*
X121477500Y-120237258D02*
X121477500Y-119762742D01*
%TO.C,R15*%
X125237258Y-129477500D02*
X124762742Y-129477500D01*
X125237258Y-130522500D02*
X124762742Y-130522500D01*
%TO.C,R16*%
X69762742Y-136522500D02*
X70237258Y-136522500D01*
X69762742Y-135477500D02*
X70237258Y-135477500D01*
%TO.C,R17*%
X99762742Y-135477500D02*
X100237258Y-135477500D01*
X99762742Y-136522500D02*
X100237258Y-136522500D01*
%TO.C,R18*%
X129762742Y-136522500D02*
X130237258Y-136522500D01*
X129762742Y-135477500D02*
X130237258Y-135477500D01*
%TO.C,R19*%
X70237258Y-129477500D02*
X69762742Y-129477500D01*
X70237258Y-130522500D02*
X69762742Y-130522500D01*
%TO.C,R20*%
X100237258Y-130522500D02*
X99762742Y-130522500D01*
X100237258Y-129477500D02*
X99762742Y-129477500D01*
%TO.C,R21*%
X130237258Y-129477500D02*
X129762742Y-129477500D01*
X130237258Y-130522500D02*
X129762742Y-130522500D01*
%TO.C,RV1*%
X59530000Y-128115000D02*
X59530000Y-137885000D01*
X54460000Y-128115000D02*
X54460000Y-137885000D01*
X59530000Y-128115000D02*
X54460000Y-128115000D01*
X59530000Y-137885000D02*
X54460000Y-137885000D01*
%TO.C,RV2*%
X89530000Y-137885000D02*
X84460000Y-137885000D01*
X89530000Y-128115000D02*
X84460000Y-128115000D01*
X84460000Y-128115000D02*
X84460000Y-137885000D01*
X89530000Y-128115000D02*
X89530000Y-137885000D01*
%TO.C,RV3*%
X119530000Y-137885000D02*
X114460000Y-137885000D01*
X119530000Y-128115000D02*
X114460000Y-128115000D01*
X114460000Y-128115000D02*
X114460000Y-137885000D01*
X119530000Y-128115000D02*
X119530000Y-137885000D01*
%TO.C,TP1*%
X63500000Y-116000000D02*
G75*
G03*
X63500000Y-116000000I-1500000J0D01*
G01*
%TO.C,TP2*%
X93500000Y-116000000D02*
G75*
G03*
X93500000Y-116000000I-1500000J0D01*
G01*
%TO.C,TP3*%
X123500000Y-116000000D02*
G75*
G03*
X123500000Y-116000000I-1500000J0D01*
G01*
%TO.C,TP4*%
X78500000Y-145000000D02*
G75*
G03*
X78500000Y-145000000I-1500000J0D01*
G01*
%TO.C,TP5*%
X64500000Y-145000000D02*
G75*
G03*
X64500000Y-145000000I-1500000J0D01*
G01*
%TO.C,TP6*%
X108500000Y-145000000D02*
G75*
G03*
X108500000Y-145000000I-1500000J0D01*
G01*
%TO.C,TP7*%
X94500000Y-145000000D02*
G75*
G03*
X94500000Y-145000000I-1500000J0D01*
G01*
%TO.C,TP8*%
X138500000Y-145000000D02*
G75*
G03*
X138500000Y-145000000I-1500000J0D01*
G01*
%TO.C,TP9*%
X124500000Y-145000000D02*
G75*
G03*
X124500000Y-145000000I-1500000J0D01*
G01*
%TO.C,TP10*%
X135500000Y-89000000D02*
G75*
G03*
X135500000Y-89000000I-1500000J0D01*
G01*
%TO.C,TR1*%
X85500000Y-55500000D02*
X85500000Y-84500000D01*
X95000000Y-55500000D02*
X85500000Y-55500000D01*
X114500000Y-55500000D02*
X105000000Y-55500000D01*
X114500000Y-84500000D02*
X114500000Y-55500000D01*
X105000000Y-84500000D02*
X114500000Y-84500000D01*
X85500000Y-84500000D02*
X95000000Y-84500000D01*
X95000000Y-52500000D02*
X95000000Y-87500000D01*
X105000000Y-52500000D02*
X95000000Y-52500000D01*
X105000000Y-87500000D02*
X105000000Y-52500000D01*
X95000000Y-87500000D02*
X105000000Y-87500000D01*
%TO.C,U2*%
X105390000Y-124950000D02*
X105390000Y-114670000D01*
X94990000Y-124950000D02*
X105390000Y-124950000D01*
X94990000Y-114670000D02*
X94990000Y-124950000D01*
X105390000Y-114670000D02*
X94990000Y-114670000D01*
X105330000Y-122460000D02*
X105330000Y-120810000D01*
X95050000Y-122460000D02*
X105330000Y-122460000D01*
X95050000Y-117160000D02*
X95050000Y-122460000D01*
X105330000Y-117160000D02*
X95050000Y-117160000D01*
X105330000Y-118810000D02*
X105330000Y-117160000D01*
X105330000Y-120810000D02*
G75*
G02*
X105330000Y-118810000I0J1000000D01*
G01*
%TO.C,U3*%
X135390000Y-124950000D02*
X135390000Y-114670000D01*
X124990000Y-124950000D02*
X135390000Y-124950000D01*
X124990000Y-114670000D02*
X124990000Y-124950000D01*
X135390000Y-114670000D02*
X124990000Y-114670000D01*
X135330000Y-122460000D02*
X135330000Y-120810000D01*
X125050000Y-122460000D02*
X135330000Y-122460000D01*
X125050000Y-117160000D02*
X125050000Y-122460000D01*
X135330000Y-117160000D02*
X125050000Y-117160000D01*
X135330000Y-118810000D02*
X135330000Y-117160000D01*
X135330000Y-120810000D02*
G75*
G02*
X135330000Y-118810000I0J1000000D01*
G01*
%TO.C,U4*%
X142260000Y-75150000D02*
X138660000Y-75150000D01*
X138135816Y-75877205D02*
G75*
G02*
X138660000Y-75150000I2324184J-1122795D01*
G01*
X138103600Y-78098807D02*
G75*
G03*
X140460000Y-79600000I2356400J1098807D01*
G01*
X142816400Y-78098807D02*
G75*
G02*
X140460000Y-79600000I-2356400J1098807D01*
G01*
X142784184Y-75877205D02*
G75*
G03*
X142260000Y-75150000I-2324184J-1122795D01*
G01*
%TO.C,U5*%
X128260000Y-75150000D02*
X124660000Y-75150000D01*
X128784184Y-75877205D02*
G75*
G03*
X128260000Y-75150000I-2324184J-1122795D01*
G01*
X128816400Y-78098807D02*
G75*
G02*
X126460000Y-79600000I-2356400J1098807D01*
G01*
X124103600Y-78098807D02*
G75*
G03*
X126460000Y-79600000I2356400J1098807D01*
G01*
X124135816Y-75877205D02*
G75*
G02*
X124660000Y-75150000I2324184J-1122795D01*
G01*
%TO.C,U1*%
D10*
X69438095Y-125652380D02*
X69438095Y-126461904D01*
X69485714Y-126557142D01*
X69533333Y-126604761D01*
X69628571Y-126652380D01*
X69819047Y-126652380D01*
X69914285Y-126604761D01*
X69961904Y-126557142D01*
X70009523Y-126461904D01*
X70009523Y-125652380D01*
X71009523Y-126652380D02*
X70438095Y-126652380D01*
X70723809Y-126652380D02*
X70723809Y-125652380D01*
X70628571Y-125795238D01*
X70533333Y-125890476D01*
X70438095Y-125938095D01*
%TO.C,C1*%
X140333333Y-73607142D02*
X140285714Y-73654761D01*
X140142857Y-73702380D01*
X140047619Y-73702380D01*
X139904761Y-73654761D01*
X139809523Y-73559523D01*
X139761904Y-73464285D01*
X139714285Y-73273809D01*
X139714285Y-73130952D01*
X139761904Y-72940476D01*
X139809523Y-72845238D01*
X139904761Y-72750000D01*
X140047619Y-72702380D01*
X140142857Y-72702380D01*
X140285714Y-72750000D01*
X140333333Y-72797619D01*
X141285714Y-73702380D02*
X140714285Y-73702380D01*
X141000000Y-73702380D02*
X141000000Y-72702380D01*
X140904761Y-72845238D01*
X140809523Y-72940476D01*
X140714285Y-72988095D01*
%TO.C,C2*%
X126333333Y-73607142D02*
X126285714Y-73654761D01*
X126142857Y-73702380D01*
X126047619Y-73702380D01*
X125904761Y-73654761D01*
X125809523Y-73559523D01*
X125761904Y-73464285D01*
X125714285Y-73273809D01*
X125714285Y-73130952D01*
X125761904Y-72940476D01*
X125809523Y-72845238D01*
X125904761Y-72750000D01*
X126047619Y-72702380D01*
X126142857Y-72702380D01*
X126285714Y-72750000D01*
X126333333Y-72797619D01*
X126714285Y-72797619D02*
X126761904Y-72750000D01*
X126857142Y-72702380D01*
X127095238Y-72702380D01*
X127190476Y-72750000D01*
X127238095Y-72797619D01*
X127285714Y-72892857D01*
X127285714Y-72988095D01*
X127238095Y-73130952D01*
X126666666Y-73702380D01*
X127285714Y-73702380D01*
%TO.C,C5*%
X72833333Y-133357142D02*
X72785714Y-133404761D01*
X72642857Y-133452380D01*
X72547619Y-133452380D01*
X72404761Y-133404761D01*
X72309523Y-133309523D01*
X72261904Y-133214285D01*
X72214285Y-133023809D01*
X72214285Y-132880952D01*
X72261904Y-132690476D01*
X72309523Y-132595238D01*
X72404761Y-132500000D01*
X72547619Y-132452380D01*
X72642857Y-132452380D01*
X72785714Y-132500000D01*
X72833333Y-132547619D01*
X73738095Y-132452380D02*
X73261904Y-132452380D01*
X73214285Y-132928571D01*
X73261904Y-132880952D01*
X73357142Y-132833333D01*
X73595238Y-132833333D01*
X73690476Y-132880952D01*
X73738095Y-132928571D01*
X73785714Y-133023809D01*
X73785714Y-133261904D01*
X73738095Y-133357142D01*
X73690476Y-133404761D01*
X73595238Y-133452380D01*
X73357142Y-133452380D01*
X73261904Y-133404761D01*
X73214285Y-133357142D01*
%TO.C,C6*%
X102833333Y-133357142D02*
X102785714Y-133404761D01*
X102642857Y-133452380D01*
X102547619Y-133452380D01*
X102404761Y-133404761D01*
X102309523Y-133309523D01*
X102261904Y-133214285D01*
X102214285Y-133023809D01*
X102214285Y-132880952D01*
X102261904Y-132690476D01*
X102309523Y-132595238D01*
X102404761Y-132500000D01*
X102547619Y-132452380D01*
X102642857Y-132452380D01*
X102785714Y-132500000D01*
X102833333Y-132547619D01*
X103690476Y-132452380D02*
X103500000Y-132452380D01*
X103404761Y-132500000D01*
X103357142Y-132547619D01*
X103261904Y-132690476D01*
X103214285Y-132880952D01*
X103214285Y-133261904D01*
X103261904Y-133357142D01*
X103309523Y-133404761D01*
X103404761Y-133452380D01*
X103595238Y-133452380D01*
X103690476Y-133404761D01*
X103738095Y-133357142D01*
X103785714Y-133261904D01*
X103785714Y-133023809D01*
X103738095Y-132928571D01*
X103690476Y-132880952D01*
X103595238Y-132833333D01*
X103404761Y-132833333D01*
X103309523Y-132880952D01*
X103261904Y-132928571D01*
X103214285Y-133023809D01*
%TO.C,C7*%
X132633333Y-133357142D02*
X132585714Y-133404761D01*
X132442857Y-133452380D01*
X132347619Y-133452380D01*
X132204761Y-133404761D01*
X132109523Y-133309523D01*
X132061904Y-133214285D01*
X132014285Y-133023809D01*
X132014285Y-132880952D01*
X132061904Y-132690476D01*
X132109523Y-132595238D01*
X132204761Y-132500000D01*
X132347619Y-132452380D01*
X132442857Y-132452380D01*
X132585714Y-132500000D01*
X132633333Y-132547619D01*
X132966666Y-132452380D02*
X133633333Y-132452380D01*
X133204761Y-133452380D01*
%TO.C,C10*%
X140107142Y-89757142D02*
X140059523Y-89804761D01*
X139916666Y-89852380D01*
X139821428Y-89852380D01*
X139678571Y-89804761D01*
X139583333Y-89709523D01*
X139535714Y-89614285D01*
X139488095Y-89423809D01*
X139488095Y-89280952D01*
X139535714Y-89090476D01*
X139583333Y-88995238D01*
X139678571Y-88900000D01*
X139821428Y-88852380D01*
X139916666Y-88852380D01*
X140059523Y-88900000D01*
X140107142Y-88947619D01*
X141059523Y-89852380D02*
X140488095Y-89852380D01*
X140773809Y-89852380D02*
X140773809Y-88852380D01*
X140678571Y-88995238D01*
X140583333Y-89090476D01*
X140488095Y-89138095D01*
X141678571Y-88852380D02*
X141773809Y-88852380D01*
X141869047Y-88900000D01*
X141916666Y-88947619D01*
X141964285Y-89042857D01*
X142011904Y-89233333D01*
X142011904Y-89471428D01*
X141964285Y-89661904D01*
X141916666Y-89757142D01*
X141869047Y-89804761D01*
X141773809Y-89852380D01*
X141678571Y-89852380D01*
X141583333Y-89804761D01*
X141535714Y-89757142D01*
X141488095Y-89661904D01*
X141440476Y-89471428D01*
X141440476Y-89233333D01*
X141488095Y-89042857D01*
X141535714Y-88947619D01*
X141583333Y-88900000D01*
X141678571Y-88852380D01*
%TO.C,C11*%
X126107142Y-89757142D02*
X126059523Y-89804761D01*
X125916666Y-89852380D01*
X125821428Y-89852380D01*
X125678571Y-89804761D01*
X125583333Y-89709523D01*
X125535714Y-89614285D01*
X125488095Y-89423809D01*
X125488095Y-89280952D01*
X125535714Y-89090476D01*
X125583333Y-88995238D01*
X125678571Y-88900000D01*
X125821428Y-88852380D01*
X125916666Y-88852380D01*
X126059523Y-88900000D01*
X126107142Y-88947619D01*
X127059523Y-89852380D02*
X126488095Y-89852380D01*
X126773809Y-89852380D02*
X126773809Y-88852380D01*
X126678571Y-88995238D01*
X126583333Y-89090476D01*
X126488095Y-89138095D01*
X128011904Y-89852380D02*
X127440476Y-89852380D01*
X127726190Y-89852380D02*
X127726190Y-88852380D01*
X127630952Y-88995238D01*
X127535714Y-89090476D01*
X127440476Y-89138095D01*
%TO.C,C12*%
X65357142Y-110927142D02*
X65309523Y-110974761D01*
X65166666Y-111022380D01*
X65071428Y-111022380D01*
X64928571Y-110974761D01*
X64833333Y-110879523D01*
X64785714Y-110784285D01*
X64738095Y-110593809D01*
X64738095Y-110450952D01*
X64785714Y-110260476D01*
X64833333Y-110165238D01*
X64928571Y-110070000D01*
X65071428Y-110022380D01*
X65166666Y-110022380D01*
X65309523Y-110070000D01*
X65357142Y-110117619D01*
X66309523Y-111022380D02*
X65738095Y-111022380D01*
X66023809Y-111022380D02*
X66023809Y-110022380D01*
X65928571Y-110165238D01*
X65833333Y-110260476D01*
X65738095Y-110308095D01*
X66690476Y-110117619D02*
X66738095Y-110070000D01*
X66833333Y-110022380D01*
X67071428Y-110022380D01*
X67166666Y-110070000D01*
X67214285Y-110117619D01*
X67261904Y-110212857D01*
X67261904Y-110308095D01*
X67214285Y-110450952D01*
X66642857Y-111022380D01*
X67261904Y-111022380D01*
%TO.C,C13*%
X95357142Y-110927142D02*
X95309523Y-110974761D01*
X95166666Y-111022380D01*
X95071428Y-111022380D01*
X94928571Y-110974761D01*
X94833333Y-110879523D01*
X94785714Y-110784285D01*
X94738095Y-110593809D01*
X94738095Y-110450952D01*
X94785714Y-110260476D01*
X94833333Y-110165238D01*
X94928571Y-110070000D01*
X95071428Y-110022380D01*
X95166666Y-110022380D01*
X95309523Y-110070000D01*
X95357142Y-110117619D01*
X96309523Y-111022380D02*
X95738095Y-111022380D01*
X96023809Y-111022380D02*
X96023809Y-110022380D01*
X95928571Y-110165238D01*
X95833333Y-110260476D01*
X95738095Y-110308095D01*
X96642857Y-110022380D02*
X97261904Y-110022380D01*
X96928571Y-110403333D01*
X97071428Y-110403333D01*
X97166666Y-110450952D01*
X97214285Y-110498571D01*
X97261904Y-110593809D01*
X97261904Y-110831904D01*
X97214285Y-110927142D01*
X97166666Y-110974761D01*
X97071428Y-111022380D01*
X96785714Y-111022380D01*
X96690476Y-110974761D01*
X96642857Y-110927142D01*
%TO.C,C14*%
X125357142Y-110927142D02*
X125309523Y-110974761D01*
X125166666Y-111022380D01*
X125071428Y-111022380D01*
X124928571Y-110974761D01*
X124833333Y-110879523D01*
X124785714Y-110784285D01*
X124738095Y-110593809D01*
X124738095Y-110450952D01*
X124785714Y-110260476D01*
X124833333Y-110165238D01*
X124928571Y-110070000D01*
X125071428Y-110022380D01*
X125166666Y-110022380D01*
X125309523Y-110070000D01*
X125357142Y-110117619D01*
X126309523Y-111022380D02*
X125738095Y-111022380D01*
X126023809Y-111022380D02*
X126023809Y-110022380D01*
X125928571Y-110165238D01*
X125833333Y-110260476D01*
X125738095Y-110308095D01*
X127166666Y-110355714D02*
X127166666Y-111022380D01*
X126928571Y-109974761D02*
X126690476Y-110689047D01*
X127309523Y-110689047D01*
%TO.C,D1*%
X131652380Y-56338095D02*
X130652380Y-56338095D01*
X130652380Y-56100000D01*
X130700000Y-55957142D01*
X130795238Y-55861904D01*
X130890476Y-55814285D01*
X131080952Y-55766666D01*
X131223809Y-55766666D01*
X131414285Y-55814285D01*
X131509523Y-55861904D01*
X131604761Y-55957142D01*
X131652380Y-56100000D01*
X131652380Y-56338095D01*
X131652380Y-54814285D02*
X131652380Y-55385714D01*
X131652380Y-55100000D02*
X130652380Y-55100000D01*
X130795238Y-55195238D01*
X130890476Y-55290476D01*
X130938095Y-55385714D01*
%TO.C,F1*%
X78928571Y-71533333D02*
X78928571Y-71866666D01*
X79452380Y-71866666D02*
X78452380Y-71866666D01*
X78452380Y-71390476D01*
X79452380Y-70485714D02*
X79452380Y-71057142D01*
X79452380Y-70771428D02*
X78452380Y-70771428D01*
X78595238Y-70866666D01*
X78690476Y-70961904D01*
X78738095Y-71057142D01*
%TO.C,J1*%
X69476666Y-95332380D02*
X69476666Y-96046666D01*
X69429047Y-96189523D01*
X69333809Y-96284761D01*
X69190952Y-96332380D01*
X69095714Y-96332380D01*
X70476666Y-96332380D02*
X69905238Y-96332380D01*
X70190952Y-96332380D02*
X70190952Y-95332380D01*
X70095714Y-95475238D01*
X70000476Y-95570476D01*
X69905238Y-95618095D01*
%TO.C,J2*%
X99476666Y-95332380D02*
X99476666Y-96046666D01*
X99429047Y-96189523D01*
X99333809Y-96284761D01*
X99190952Y-96332380D01*
X99095714Y-96332380D01*
X99905238Y-95427619D02*
X99952857Y-95380000D01*
X100048095Y-95332380D01*
X100286190Y-95332380D01*
X100381428Y-95380000D01*
X100429047Y-95427619D01*
X100476666Y-95522857D01*
X100476666Y-95618095D01*
X100429047Y-95760952D01*
X99857619Y-96332380D01*
X100476666Y-96332380D01*
%TO.C,J3*%
X129476666Y-95332380D02*
X129476666Y-96046666D01*
X129429047Y-96189523D01*
X129333809Y-96284761D01*
X129190952Y-96332380D01*
X129095714Y-96332380D01*
X129857619Y-95332380D02*
X130476666Y-95332380D01*
X130143333Y-95713333D01*
X130286190Y-95713333D01*
X130381428Y-95760952D01*
X130429047Y-95808571D01*
X130476666Y-95903809D01*
X130476666Y-96141904D01*
X130429047Y-96237142D01*
X130381428Y-96284761D01*
X130286190Y-96332380D01*
X130000476Y-96332380D01*
X129905238Y-96284761D01*
X129857619Y-96237142D01*
%TO.C,J4*%
X69666666Y-139602380D02*
X69666666Y-140316666D01*
X69619047Y-140459523D01*
X69523809Y-140554761D01*
X69380952Y-140602380D01*
X69285714Y-140602380D01*
X70571428Y-139935714D02*
X70571428Y-140602380D01*
X70333333Y-139554761D02*
X70095238Y-140269047D01*
X70714285Y-140269047D01*
%TO.C,J5*%
X99666666Y-139602380D02*
X99666666Y-140316666D01*
X99619047Y-140459523D01*
X99523809Y-140554761D01*
X99380952Y-140602380D01*
X99285714Y-140602380D01*
X100619047Y-139602380D02*
X100142857Y-139602380D01*
X100095238Y-140078571D01*
X100142857Y-140030952D01*
X100238095Y-139983333D01*
X100476190Y-139983333D01*
X100571428Y-140030952D01*
X100619047Y-140078571D01*
X100666666Y-140173809D01*
X100666666Y-140411904D01*
X100619047Y-140507142D01*
X100571428Y-140554761D01*
X100476190Y-140602380D01*
X100238095Y-140602380D01*
X100142857Y-140554761D01*
X100095238Y-140507142D01*
%TO.C,J6*%
X129666666Y-139602380D02*
X129666666Y-140316666D01*
X129619047Y-140459523D01*
X129523809Y-140554761D01*
X129380952Y-140602380D01*
X129285714Y-140602380D01*
X130571428Y-139602380D02*
X130380952Y-139602380D01*
X130285714Y-139650000D01*
X130238095Y-139697619D01*
X130142857Y-139840476D01*
X130095238Y-140030952D01*
X130095238Y-140411904D01*
X130142857Y-140507142D01*
X130190476Y-140554761D01*
X130285714Y-140602380D01*
X130476190Y-140602380D01*
X130571428Y-140554761D01*
X130619047Y-140507142D01*
X130666666Y-140411904D01*
X130666666Y-140173809D01*
X130619047Y-140078571D01*
X130571428Y-140030952D01*
X130476190Y-139983333D01*
X130285714Y-139983333D01*
X130190476Y-140030952D01*
X130142857Y-140078571D01*
X130095238Y-140173809D01*
%TO.C,P1*%
X65052380Y-84138095D02*
X64052380Y-84138095D01*
X64052380Y-83757142D01*
X64100000Y-83661904D01*
X64147619Y-83614285D01*
X64242857Y-83566666D01*
X64385714Y-83566666D01*
X64480952Y-83614285D01*
X64528571Y-83661904D01*
X64576190Y-83757142D01*
X64576190Y-84138095D01*
X65052380Y-82614285D02*
X65052380Y-83185714D01*
X65052380Y-82900000D02*
X64052380Y-82900000D01*
X64195238Y-82995238D01*
X64290476Y-83090476D01*
X64338095Y-83185714D01*
%TO.C,R1*%
X71833333Y-107022380D02*
X71500000Y-106546190D01*
X71261904Y-107022380D02*
X71261904Y-106022380D01*
X71642857Y-106022380D01*
X71738095Y-106070000D01*
X71785714Y-106117619D01*
X71833333Y-106212857D01*
X71833333Y-106355714D01*
X71785714Y-106450952D01*
X71738095Y-106498571D01*
X71642857Y-106546190D01*
X71261904Y-106546190D01*
X72785714Y-107022380D02*
X72214285Y-107022380D01*
X72500000Y-107022380D02*
X72500000Y-106022380D01*
X72404761Y-106165238D01*
X72309523Y-106260476D01*
X72214285Y-106308095D01*
%TO.C,R2*%
X101833333Y-107022380D02*
X101500000Y-106546190D01*
X101261904Y-107022380D02*
X101261904Y-106022380D01*
X101642857Y-106022380D01*
X101738095Y-106070000D01*
X101785714Y-106117619D01*
X101833333Y-106212857D01*
X101833333Y-106355714D01*
X101785714Y-106450952D01*
X101738095Y-106498571D01*
X101642857Y-106546190D01*
X101261904Y-106546190D01*
X102214285Y-106117619D02*
X102261904Y-106070000D01*
X102357142Y-106022380D01*
X102595238Y-106022380D01*
X102690476Y-106070000D01*
X102738095Y-106117619D01*
X102785714Y-106212857D01*
X102785714Y-106308095D01*
X102738095Y-106450952D01*
X102166666Y-107022380D01*
X102785714Y-107022380D01*
%TO.C,R3*%
X131833333Y-107022380D02*
X131500000Y-106546190D01*
X131261904Y-107022380D02*
X131261904Y-106022380D01*
X131642857Y-106022380D01*
X131738095Y-106070000D01*
X131785714Y-106117619D01*
X131833333Y-106212857D01*
X131833333Y-106355714D01*
X131785714Y-106450952D01*
X131738095Y-106498571D01*
X131642857Y-106546190D01*
X131261904Y-106546190D01*
X132166666Y-106022380D02*
X132785714Y-106022380D01*
X132452380Y-106403333D01*
X132595238Y-106403333D01*
X132690476Y-106450952D01*
X132738095Y-106498571D01*
X132785714Y-106593809D01*
X132785714Y-106831904D01*
X132738095Y-106927142D01*
X132690476Y-106974761D01*
X132595238Y-107022380D01*
X132309523Y-107022380D01*
X132214285Y-106974761D01*
X132166666Y-106927142D01*
%TO.C,R4*%
X61833333Y-136452380D02*
X61500000Y-135976190D01*
X61261904Y-136452380D02*
X61261904Y-135452380D01*
X61642857Y-135452380D01*
X61738095Y-135500000D01*
X61785714Y-135547619D01*
X61833333Y-135642857D01*
X61833333Y-135785714D01*
X61785714Y-135880952D01*
X61738095Y-135928571D01*
X61642857Y-135976190D01*
X61261904Y-135976190D01*
X62690476Y-135785714D02*
X62690476Y-136452380D01*
X62452380Y-135404761D02*
X62214285Y-136119047D01*
X62833333Y-136119047D01*
%TO.C,R5*%
X61833333Y-133652380D02*
X61500000Y-133176190D01*
X61261904Y-133652380D02*
X61261904Y-132652380D01*
X61642857Y-132652380D01*
X61738095Y-132700000D01*
X61785714Y-132747619D01*
X61833333Y-132842857D01*
X61833333Y-132985714D01*
X61785714Y-133080952D01*
X61738095Y-133128571D01*
X61642857Y-133176190D01*
X61261904Y-133176190D01*
X62738095Y-132652380D02*
X62261904Y-132652380D01*
X62214285Y-133128571D01*
X62261904Y-133080952D01*
X62357142Y-133033333D01*
X62595238Y-133033333D01*
X62690476Y-133080952D01*
X62738095Y-133128571D01*
X62785714Y-133223809D01*
X62785714Y-133461904D01*
X62738095Y-133557142D01*
X62690476Y-133604761D01*
X62595238Y-133652380D01*
X62357142Y-133652380D01*
X62261904Y-133604761D01*
X62214285Y-133557142D01*
%TO.C,R6*%
X91833333Y-136452380D02*
X91500000Y-135976190D01*
X91261904Y-136452380D02*
X91261904Y-135452380D01*
X91642857Y-135452380D01*
X91738095Y-135500000D01*
X91785714Y-135547619D01*
X91833333Y-135642857D01*
X91833333Y-135785714D01*
X91785714Y-135880952D01*
X91738095Y-135928571D01*
X91642857Y-135976190D01*
X91261904Y-135976190D01*
X92690476Y-135452380D02*
X92500000Y-135452380D01*
X92404761Y-135500000D01*
X92357142Y-135547619D01*
X92261904Y-135690476D01*
X92214285Y-135880952D01*
X92214285Y-136261904D01*
X92261904Y-136357142D01*
X92309523Y-136404761D01*
X92404761Y-136452380D01*
X92595238Y-136452380D01*
X92690476Y-136404761D01*
X92738095Y-136357142D01*
X92785714Y-136261904D01*
X92785714Y-136023809D01*
X92738095Y-135928571D01*
X92690476Y-135880952D01*
X92595238Y-135833333D01*
X92404761Y-135833333D01*
X92309523Y-135880952D01*
X92261904Y-135928571D01*
X92214285Y-136023809D01*
%TO.C,R7*%
X91833333Y-133652380D02*
X91500000Y-133176190D01*
X91261904Y-133652380D02*
X91261904Y-132652380D01*
X91642857Y-132652380D01*
X91738095Y-132700000D01*
X91785714Y-132747619D01*
X91833333Y-132842857D01*
X91833333Y-132985714D01*
X91785714Y-133080952D01*
X91738095Y-133128571D01*
X91642857Y-133176190D01*
X91261904Y-133176190D01*
X92166666Y-132652380D02*
X92833333Y-132652380D01*
X92404761Y-133652380D01*
%TO.C,R8*%
X121833333Y-136452380D02*
X121500000Y-135976190D01*
X121261904Y-136452380D02*
X121261904Y-135452380D01*
X121642857Y-135452380D01*
X121738095Y-135500000D01*
X121785714Y-135547619D01*
X121833333Y-135642857D01*
X121833333Y-135785714D01*
X121785714Y-135880952D01*
X121738095Y-135928571D01*
X121642857Y-135976190D01*
X121261904Y-135976190D01*
X122404761Y-135880952D02*
X122309523Y-135833333D01*
X122261904Y-135785714D01*
X122214285Y-135690476D01*
X122214285Y-135642857D01*
X122261904Y-135547619D01*
X122309523Y-135500000D01*
X122404761Y-135452380D01*
X122595238Y-135452380D01*
X122690476Y-135500000D01*
X122738095Y-135547619D01*
X122785714Y-135642857D01*
X122785714Y-135690476D01*
X122738095Y-135785714D01*
X122690476Y-135833333D01*
X122595238Y-135880952D01*
X122404761Y-135880952D01*
X122309523Y-135928571D01*
X122261904Y-135976190D01*
X122214285Y-136071428D01*
X122214285Y-136261904D01*
X122261904Y-136357142D01*
X122309523Y-136404761D01*
X122404761Y-136452380D01*
X122595238Y-136452380D01*
X122690476Y-136404761D01*
X122738095Y-136357142D01*
X122785714Y-136261904D01*
X122785714Y-136071428D01*
X122738095Y-135976190D01*
X122690476Y-135928571D01*
X122595238Y-135880952D01*
%TO.C,R9*%
X121833333Y-133452380D02*
X121500000Y-132976190D01*
X121261904Y-133452380D02*
X121261904Y-132452380D01*
X121642857Y-132452380D01*
X121738095Y-132500000D01*
X121785714Y-132547619D01*
X121833333Y-132642857D01*
X121833333Y-132785714D01*
X121785714Y-132880952D01*
X121738095Y-132928571D01*
X121642857Y-132976190D01*
X121261904Y-132976190D01*
X122309523Y-133452380D02*
X122500000Y-133452380D01*
X122595238Y-133404761D01*
X122642857Y-133357142D01*
X122738095Y-133214285D01*
X122785714Y-133023809D01*
X122785714Y-132642857D01*
X122738095Y-132547619D01*
X122690476Y-132500000D01*
X122595238Y-132452380D01*
X122404761Y-132452380D01*
X122309523Y-132500000D01*
X122261904Y-132547619D01*
X122214285Y-132642857D01*
X122214285Y-132880952D01*
X122261904Y-132976190D01*
X122309523Y-133023809D01*
X122404761Y-133071428D01*
X122595238Y-133071428D01*
X122690476Y-133023809D01*
X122738095Y-132976190D01*
X122785714Y-132880952D01*
%TO.C,R10*%
X61022380Y-120642857D02*
X60546190Y-120976190D01*
X61022380Y-121214285D02*
X60022380Y-121214285D01*
X60022380Y-120833333D01*
X60070000Y-120738095D01*
X60117619Y-120690476D01*
X60212857Y-120642857D01*
X60355714Y-120642857D01*
X60450952Y-120690476D01*
X60498571Y-120738095D01*
X60546190Y-120833333D01*
X60546190Y-121214285D01*
X61022380Y-119690476D02*
X61022380Y-120261904D01*
X61022380Y-119976190D02*
X60022380Y-119976190D01*
X60165238Y-120071428D01*
X60260476Y-120166666D01*
X60308095Y-120261904D01*
X60022380Y-119071428D02*
X60022380Y-118976190D01*
X60070000Y-118880952D01*
X60117619Y-118833333D01*
X60212857Y-118785714D01*
X60403333Y-118738095D01*
X60641428Y-118738095D01*
X60831904Y-118785714D01*
X60927142Y-118833333D01*
X60974761Y-118880952D01*
X61022380Y-118976190D01*
X61022380Y-119071428D01*
X60974761Y-119166666D01*
X60927142Y-119214285D01*
X60831904Y-119261904D01*
X60641428Y-119309523D01*
X60403333Y-119309523D01*
X60212857Y-119261904D01*
X60117619Y-119214285D01*
X60070000Y-119166666D01*
X60022380Y-119071428D01*
%TO.C,R11*%
X60957142Y-130452380D02*
X60623809Y-129976190D01*
X60385714Y-130452380D02*
X60385714Y-129452380D01*
X60766666Y-129452380D01*
X60861904Y-129500000D01*
X60909523Y-129547619D01*
X60957142Y-129642857D01*
X60957142Y-129785714D01*
X60909523Y-129880952D01*
X60861904Y-129928571D01*
X60766666Y-129976190D01*
X60385714Y-129976190D01*
X61909523Y-130452380D02*
X61338095Y-130452380D01*
X61623809Y-130452380D02*
X61623809Y-129452380D01*
X61528571Y-129595238D01*
X61433333Y-129690476D01*
X61338095Y-129738095D01*
X62861904Y-130452380D02*
X62290476Y-130452380D01*
X62576190Y-130452380D02*
X62576190Y-129452380D01*
X62480952Y-129595238D01*
X62385714Y-129690476D01*
X62290476Y-129738095D01*
%TO.C,R12*%
X91022380Y-120642857D02*
X90546190Y-120976190D01*
X91022380Y-121214285D02*
X90022380Y-121214285D01*
X90022380Y-120833333D01*
X90070000Y-120738095D01*
X90117619Y-120690476D01*
X90212857Y-120642857D01*
X90355714Y-120642857D01*
X90450952Y-120690476D01*
X90498571Y-120738095D01*
X90546190Y-120833333D01*
X90546190Y-121214285D01*
X91022380Y-119690476D02*
X91022380Y-120261904D01*
X91022380Y-119976190D02*
X90022380Y-119976190D01*
X90165238Y-120071428D01*
X90260476Y-120166666D01*
X90308095Y-120261904D01*
X90117619Y-119309523D02*
X90070000Y-119261904D01*
X90022380Y-119166666D01*
X90022380Y-118928571D01*
X90070000Y-118833333D01*
X90117619Y-118785714D01*
X90212857Y-118738095D01*
X90308095Y-118738095D01*
X90450952Y-118785714D01*
X91022380Y-119357142D01*
X91022380Y-118738095D01*
%TO.C,R13*%
X90957142Y-130452380D02*
X90623809Y-129976190D01*
X90385714Y-130452380D02*
X90385714Y-129452380D01*
X90766666Y-129452380D01*
X90861904Y-129500000D01*
X90909523Y-129547619D01*
X90957142Y-129642857D01*
X90957142Y-129785714D01*
X90909523Y-129880952D01*
X90861904Y-129928571D01*
X90766666Y-129976190D01*
X90385714Y-129976190D01*
X91909523Y-130452380D02*
X91338095Y-130452380D01*
X91623809Y-130452380D02*
X91623809Y-129452380D01*
X91528571Y-129595238D01*
X91433333Y-129690476D01*
X91338095Y-129738095D01*
X92242857Y-129452380D02*
X92861904Y-129452380D01*
X92528571Y-129833333D01*
X92671428Y-129833333D01*
X92766666Y-129880952D01*
X92814285Y-129928571D01*
X92861904Y-130023809D01*
X92861904Y-130261904D01*
X92814285Y-130357142D01*
X92766666Y-130404761D01*
X92671428Y-130452380D01*
X92385714Y-130452380D01*
X92290476Y-130404761D01*
X92242857Y-130357142D01*
%TO.C,R14*%
X121022380Y-120642857D02*
X120546190Y-120976190D01*
X121022380Y-121214285D02*
X120022380Y-121214285D01*
X120022380Y-120833333D01*
X120070000Y-120738095D01*
X120117619Y-120690476D01*
X120212857Y-120642857D01*
X120355714Y-120642857D01*
X120450952Y-120690476D01*
X120498571Y-120738095D01*
X120546190Y-120833333D01*
X120546190Y-121214285D01*
X121022380Y-119690476D02*
X121022380Y-120261904D01*
X121022380Y-119976190D02*
X120022380Y-119976190D01*
X120165238Y-120071428D01*
X120260476Y-120166666D01*
X120308095Y-120261904D01*
X120355714Y-118833333D02*
X121022380Y-118833333D01*
X119974761Y-119071428D02*
X120689047Y-119309523D01*
X120689047Y-118690476D01*
%TO.C,R15*%
X120957142Y-130452380D02*
X120623809Y-129976190D01*
X120385714Y-130452380D02*
X120385714Y-129452380D01*
X120766666Y-129452380D01*
X120861904Y-129500000D01*
X120909523Y-129547619D01*
X120957142Y-129642857D01*
X120957142Y-129785714D01*
X120909523Y-129880952D01*
X120861904Y-129928571D01*
X120766666Y-129976190D01*
X120385714Y-129976190D01*
X121909523Y-130452380D02*
X121338095Y-130452380D01*
X121623809Y-130452380D02*
X121623809Y-129452380D01*
X121528571Y-129595238D01*
X121433333Y-129690476D01*
X121338095Y-129738095D01*
X122814285Y-129452380D02*
X122338095Y-129452380D01*
X122290476Y-129928571D01*
X122338095Y-129880952D01*
X122433333Y-129833333D01*
X122671428Y-129833333D01*
X122766666Y-129880952D01*
X122814285Y-129928571D01*
X122861904Y-130023809D01*
X122861904Y-130261904D01*
X122814285Y-130357142D01*
X122766666Y-130404761D01*
X122671428Y-130452380D01*
X122433333Y-130452380D01*
X122338095Y-130404761D01*
X122290476Y-130357142D01*
%TO.C,R16*%
X72757142Y-136452380D02*
X72423809Y-135976190D01*
X72185714Y-136452380D02*
X72185714Y-135452380D01*
X72566666Y-135452380D01*
X72661904Y-135500000D01*
X72709523Y-135547619D01*
X72757142Y-135642857D01*
X72757142Y-135785714D01*
X72709523Y-135880952D01*
X72661904Y-135928571D01*
X72566666Y-135976190D01*
X72185714Y-135976190D01*
X73709523Y-136452380D02*
X73138095Y-136452380D01*
X73423809Y-136452380D02*
X73423809Y-135452380D01*
X73328571Y-135595238D01*
X73233333Y-135690476D01*
X73138095Y-135738095D01*
X74566666Y-135452380D02*
X74376190Y-135452380D01*
X74280952Y-135500000D01*
X74233333Y-135547619D01*
X74138095Y-135690476D01*
X74090476Y-135880952D01*
X74090476Y-136261904D01*
X74138095Y-136357142D01*
X74185714Y-136404761D01*
X74280952Y-136452380D01*
X74471428Y-136452380D01*
X74566666Y-136404761D01*
X74614285Y-136357142D01*
X74661904Y-136261904D01*
X74661904Y-136023809D01*
X74614285Y-135928571D01*
X74566666Y-135880952D01*
X74471428Y-135833333D01*
X74280952Y-135833333D01*
X74185714Y-135880952D01*
X74138095Y-135928571D01*
X74090476Y-136023809D01*
%TO.C,R17*%
X102757142Y-136452380D02*
X102423809Y-135976190D01*
X102185714Y-136452380D02*
X102185714Y-135452380D01*
X102566666Y-135452380D01*
X102661904Y-135500000D01*
X102709523Y-135547619D01*
X102757142Y-135642857D01*
X102757142Y-135785714D01*
X102709523Y-135880952D01*
X102661904Y-135928571D01*
X102566666Y-135976190D01*
X102185714Y-135976190D01*
X103709523Y-136452380D02*
X103138095Y-136452380D01*
X103423809Y-136452380D02*
X103423809Y-135452380D01*
X103328571Y-135595238D01*
X103233333Y-135690476D01*
X103138095Y-135738095D01*
X104042857Y-135452380D02*
X104709523Y-135452380D01*
X104280952Y-136452380D01*
%TO.C,R18*%
X132557142Y-136452380D02*
X132223809Y-135976190D01*
X131985714Y-136452380D02*
X131985714Y-135452380D01*
X132366666Y-135452380D01*
X132461904Y-135500000D01*
X132509523Y-135547619D01*
X132557142Y-135642857D01*
X132557142Y-135785714D01*
X132509523Y-135880952D01*
X132461904Y-135928571D01*
X132366666Y-135976190D01*
X131985714Y-135976190D01*
X133509523Y-136452380D02*
X132938095Y-136452380D01*
X133223809Y-136452380D02*
X133223809Y-135452380D01*
X133128571Y-135595238D01*
X133033333Y-135690476D01*
X132938095Y-135738095D01*
X134080952Y-135880952D02*
X133985714Y-135833333D01*
X133938095Y-135785714D01*
X133890476Y-135690476D01*
X133890476Y-135642857D01*
X133938095Y-135547619D01*
X133985714Y-135500000D01*
X134080952Y-135452380D01*
X134271428Y-135452380D01*
X134366666Y-135500000D01*
X134414285Y-135547619D01*
X134461904Y-135642857D01*
X134461904Y-135690476D01*
X134414285Y-135785714D01*
X134366666Y-135833333D01*
X134271428Y-135880952D01*
X134080952Y-135880952D01*
X133985714Y-135928571D01*
X133938095Y-135976190D01*
X133890476Y-136071428D01*
X133890476Y-136261904D01*
X133938095Y-136357142D01*
X133985714Y-136404761D01*
X134080952Y-136452380D01*
X134271428Y-136452380D01*
X134366666Y-136404761D01*
X134414285Y-136357142D01*
X134461904Y-136261904D01*
X134461904Y-136071428D01*
X134414285Y-135976190D01*
X134366666Y-135928571D01*
X134271428Y-135880952D01*
%TO.C,R19*%
X72757142Y-130452380D02*
X72423809Y-129976190D01*
X72185714Y-130452380D02*
X72185714Y-129452380D01*
X72566666Y-129452380D01*
X72661904Y-129500000D01*
X72709523Y-129547619D01*
X72757142Y-129642857D01*
X72757142Y-129785714D01*
X72709523Y-129880952D01*
X72661904Y-129928571D01*
X72566666Y-129976190D01*
X72185714Y-129976190D01*
X73709523Y-130452380D02*
X73138095Y-130452380D01*
X73423809Y-130452380D02*
X73423809Y-129452380D01*
X73328571Y-129595238D01*
X73233333Y-129690476D01*
X73138095Y-129738095D01*
X74185714Y-130452380D02*
X74376190Y-130452380D01*
X74471428Y-130404761D01*
X74519047Y-130357142D01*
X74614285Y-130214285D01*
X74661904Y-130023809D01*
X74661904Y-129642857D01*
X74614285Y-129547619D01*
X74566666Y-129500000D01*
X74471428Y-129452380D01*
X74280952Y-129452380D01*
X74185714Y-129500000D01*
X74138095Y-129547619D01*
X74090476Y-129642857D01*
X74090476Y-129880952D01*
X74138095Y-129976190D01*
X74185714Y-130023809D01*
X74280952Y-130071428D01*
X74471428Y-130071428D01*
X74566666Y-130023809D01*
X74614285Y-129976190D01*
X74661904Y-129880952D01*
%TO.C,R20*%
X102757142Y-130452380D02*
X102423809Y-129976190D01*
X102185714Y-130452380D02*
X102185714Y-129452380D01*
X102566666Y-129452380D01*
X102661904Y-129500000D01*
X102709523Y-129547619D01*
X102757142Y-129642857D01*
X102757142Y-129785714D01*
X102709523Y-129880952D01*
X102661904Y-129928571D01*
X102566666Y-129976190D01*
X102185714Y-129976190D01*
X103138095Y-129547619D02*
X103185714Y-129500000D01*
X103280952Y-129452380D01*
X103519047Y-129452380D01*
X103614285Y-129500000D01*
X103661904Y-129547619D01*
X103709523Y-129642857D01*
X103709523Y-129738095D01*
X103661904Y-129880952D01*
X103090476Y-130452380D01*
X103709523Y-130452380D01*
X104328571Y-129452380D02*
X104423809Y-129452380D01*
X104519047Y-129500000D01*
X104566666Y-129547619D01*
X104614285Y-129642857D01*
X104661904Y-129833333D01*
X104661904Y-130071428D01*
X104614285Y-130261904D01*
X104566666Y-130357142D01*
X104519047Y-130404761D01*
X104423809Y-130452380D01*
X104328571Y-130452380D01*
X104233333Y-130404761D01*
X104185714Y-130357142D01*
X104138095Y-130261904D01*
X104090476Y-130071428D01*
X104090476Y-129833333D01*
X104138095Y-129642857D01*
X104185714Y-129547619D01*
X104233333Y-129500000D01*
X104328571Y-129452380D01*
%TO.C,R21*%
X132557142Y-130452380D02*
X132223809Y-129976190D01*
X131985714Y-130452380D02*
X131985714Y-129452380D01*
X132366666Y-129452380D01*
X132461904Y-129500000D01*
X132509523Y-129547619D01*
X132557142Y-129642857D01*
X132557142Y-129785714D01*
X132509523Y-129880952D01*
X132461904Y-129928571D01*
X132366666Y-129976190D01*
X131985714Y-129976190D01*
X132938095Y-129547619D02*
X132985714Y-129500000D01*
X133080952Y-129452380D01*
X133319047Y-129452380D01*
X133414285Y-129500000D01*
X133461904Y-129547619D01*
X133509523Y-129642857D01*
X133509523Y-129738095D01*
X133461904Y-129880952D01*
X132890476Y-130452380D01*
X133509523Y-130452380D01*
X134461904Y-130452380D02*
X133890476Y-130452380D01*
X134176190Y-130452380D02*
X134176190Y-129452380D01*
X134080952Y-129595238D01*
X133985714Y-129690476D01*
X133890476Y-129738095D01*
%TO.C,RV1*%
X53452380Y-133595238D02*
X52976190Y-133928571D01*
X53452380Y-134166666D02*
X52452380Y-134166666D01*
X52452380Y-133785714D01*
X52500000Y-133690476D01*
X52547619Y-133642857D01*
X52642857Y-133595238D01*
X52785714Y-133595238D01*
X52880952Y-133642857D01*
X52928571Y-133690476D01*
X52976190Y-133785714D01*
X52976190Y-134166666D01*
X52452380Y-133309523D02*
X53452380Y-132976190D01*
X52452380Y-132642857D01*
X53452380Y-131785714D02*
X53452380Y-132357142D01*
X53452380Y-132071428D02*
X52452380Y-132071428D01*
X52595238Y-132166666D01*
X52690476Y-132261904D01*
X52738095Y-132357142D01*
%TO.C,RV2*%
X83652380Y-133595238D02*
X83176190Y-133928571D01*
X83652380Y-134166666D02*
X82652380Y-134166666D01*
X82652380Y-133785714D01*
X82700000Y-133690476D01*
X82747619Y-133642857D01*
X82842857Y-133595238D01*
X82985714Y-133595238D01*
X83080952Y-133642857D01*
X83128571Y-133690476D01*
X83176190Y-133785714D01*
X83176190Y-134166666D01*
X82652380Y-133309523D02*
X83652380Y-132976190D01*
X82652380Y-132642857D01*
X82747619Y-132357142D02*
X82700000Y-132309523D01*
X82652380Y-132214285D01*
X82652380Y-131976190D01*
X82700000Y-131880952D01*
X82747619Y-131833333D01*
X82842857Y-131785714D01*
X82938095Y-131785714D01*
X83080952Y-131833333D01*
X83652380Y-132404761D01*
X83652380Y-131785714D01*
%TO.C,RV3*%
X113852380Y-133595238D02*
X113376190Y-133928571D01*
X113852380Y-134166666D02*
X112852380Y-134166666D01*
X112852380Y-133785714D01*
X112900000Y-133690476D01*
X112947619Y-133642857D01*
X113042857Y-133595238D01*
X113185714Y-133595238D01*
X113280952Y-133642857D01*
X113328571Y-133690476D01*
X113376190Y-133785714D01*
X113376190Y-134166666D01*
X112852380Y-133309523D02*
X113852380Y-132976190D01*
X112852380Y-132642857D01*
X112852380Y-132404761D02*
X112852380Y-131785714D01*
X113233333Y-132119047D01*
X113233333Y-131976190D01*
X113280952Y-131880952D01*
X113328571Y-131833333D01*
X113423809Y-131785714D01*
X113661904Y-131785714D01*
X113757142Y-131833333D01*
X113804761Y-131880952D01*
X113852380Y-131976190D01*
X113852380Y-132261904D01*
X113804761Y-132357142D01*
X113757142Y-132404761D01*
%TO.C,TP1*%
X57338095Y-115452380D02*
X57909523Y-115452380D01*
X57623809Y-116452380D02*
X57623809Y-115452380D01*
X58242857Y-116452380D02*
X58242857Y-115452380D01*
X58623809Y-115452380D01*
X58719047Y-115500000D01*
X58766666Y-115547619D01*
X58814285Y-115642857D01*
X58814285Y-115785714D01*
X58766666Y-115880952D01*
X58719047Y-115928571D01*
X58623809Y-115976190D01*
X58242857Y-115976190D01*
X59766666Y-116452380D02*
X59195238Y-116452380D01*
X59480952Y-116452380D02*
X59480952Y-115452380D01*
X59385714Y-115595238D01*
X59290476Y-115690476D01*
X59195238Y-115738095D01*
%TO.C,TP2*%
X87338095Y-115452380D02*
X87909523Y-115452380D01*
X87623809Y-116452380D02*
X87623809Y-115452380D01*
X88242857Y-116452380D02*
X88242857Y-115452380D01*
X88623809Y-115452380D01*
X88719047Y-115500000D01*
X88766666Y-115547619D01*
X88814285Y-115642857D01*
X88814285Y-115785714D01*
X88766666Y-115880952D01*
X88719047Y-115928571D01*
X88623809Y-115976190D01*
X88242857Y-115976190D01*
X89195238Y-115547619D02*
X89242857Y-115500000D01*
X89338095Y-115452380D01*
X89576190Y-115452380D01*
X89671428Y-115500000D01*
X89719047Y-115547619D01*
X89766666Y-115642857D01*
X89766666Y-115738095D01*
X89719047Y-115880952D01*
X89147619Y-116452380D01*
X89766666Y-116452380D01*
%TO.C,TP3*%
X117338095Y-115452380D02*
X117909523Y-115452380D01*
X117623809Y-116452380D02*
X117623809Y-115452380D01*
X118242857Y-116452380D02*
X118242857Y-115452380D01*
X118623809Y-115452380D01*
X118719047Y-115500000D01*
X118766666Y-115547619D01*
X118814285Y-115642857D01*
X118814285Y-115785714D01*
X118766666Y-115880952D01*
X118719047Y-115928571D01*
X118623809Y-115976190D01*
X118242857Y-115976190D01*
X119147619Y-115452380D02*
X119766666Y-115452380D01*
X119433333Y-115833333D01*
X119576190Y-115833333D01*
X119671428Y-115880952D01*
X119719047Y-115928571D01*
X119766666Y-116023809D01*
X119766666Y-116261904D01*
X119719047Y-116357142D01*
X119671428Y-116404761D01*
X119576190Y-116452380D01*
X119290476Y-116452380D01*
X119195238Y-116404761D01*
X119147619Y-116357142D01*
%TO.C,TP4*%
X76438095Y-146952380D02*
X77009523Y-146952380D01*
X76723809Y-147952380D02*
X76723809Y-146952380D01*
X77342857Y-147952380D02*
X77342857Y-146952380D01*
X77723809Y-146952380D01*
X77819047Y-147000000D01*
X77866666Y-147047619D01*
X77914285Y-147142857D01*
X77914285Y-147285714D01*
X77866666Y-147380952D01*
X77819047Y-147428571D01*
X77723809Y-147476190D01*
X77342857Y-147476190D01*
X78771428Y-147285714D02*
X78771428Y-147952380D01*
X78533333Y-146904761D02*
X78295238Y-147619047D01*
X78914285Y-147619047D01*
%TO.C,TP5*%
X61738095Y-141852380D02*
X62309523Y-141852380D01*
X62023809Y-142852380D02*
X62023809Y-141852380D01*
X62642857Y-142852380D02*
X62642857Y-141852380D01*
X63023809Y-141852380D01*
X63119047Y-141900000D01*
X63166666Y-141947619D01*
X63214285Y-142042857D01*
X63214285Y-142185714D01*
X63166666Y-142280952D01*
X63119047Y-142328571D01*
X63023809Y-142376190D01*
X62642857Y-142376190D01*
X64119047Y-141852380D02*
X63642857Y-141852380D01*
X63595238Y-142328571D01*
X63642857Y-142280952D01*
X63738095Y-142233333D01*
X63976190Y-142233333D01*
X64071428Y-142280952D01*
X64119047Y-142328571D01*
X64166666Y-142423809D01*
X64166666Y-142661904D01*
X64119047Y-142757142D01*
X64071428Y-142804761D01*
X63976190Y-142852380D01*
X63738095Y-142852380D01*
X63642857Y-142804761D01*
X63595238Y-142757142D01*
%TO.C,TP6*%
X106438095Y-146952380D02*
X107009523Y-146952380D01*
X106723809Y-147952380D02*
X106723809Y-146952380D01*
X107342857Y-147952380D02*
X107342857Y-146952380D01*
X107723809Y-146952380D01*
X107819047Y-147000000D01*
X107866666Y-147047619D01*
X107914285Y-147142857D01*
X107914285Y-147285714D01*
X107866666Y-147380952D01*
X107819047Y-147428571D01*
X107723809Y-147476190D01*
X107342857Y-147476190D01*
X108771428Y-146952380D02*
X108580952Y-146952380D01*
X108485714Y-147000000D01*
X108438095Y-147047619D01*
X108342857Y-147190476D01*
X108295238Y-147380952D01*
X108295238Y-147761904D01*
X108342857Y-147857142D01*
X108390476Y-147904761D01*
X108485714Y-147952380D01*
X108676190Y-147952380D01*
X108771428Y-147904761D01*
X108819047Y-147857142D01*
X108866666Y-147761904D01*
X108866666Y-147523809D01*
X108819047Y-147428571D01*
X108771428Y-147380952D01*
X108676190Y-147333333D01*
X108485714Y-147333333D01*
X108390476Y-147380952D01*
X108342857Y-147428571D01*
X108295238Y-147523809D01*
%TO.C,TP7*%
X91738095Y-141852380D02*
X92309523Y-141852380D01*
X92023809Y-142852380D02*
X92023809Y-141852380D01*
X92642857Y-142852380D02*
X92642857Y-141852380D01*
X93023809Y-141852380D01*
X93119047Y-141900000D01*
X93166666Y-141947619D01*
X93214285Y-142042857D01*
X93214285Y-142185714D01*
X93166666Y-142280952D01*
X93119047Y-142328571D01*
X93023809Y-142376190D01*
X92642857Y-142376190D01*
X93547619Y-141852380D02*
X94214285Y-141852380D01*
X93785714Y-142852380D01*
%TO.C,TP8*%
X136438095Y-146952380D02*
X137009523Y-146952380D01*
X136723809Y-147952380D02*
X136723809Y-146952380D01*
X137342857Y-147952380D02*
X137342857Y-146952380D01*
X137723809Y-146952380D01*
X137819047Y-147000000D01*
X137866666Y-147047619D01*
X137914285Y-147142857D01*
X137914285Y-147285714D01*
X137866666Y-147380952D01*
X137819047Y-147428571D01*
X137723809Y-147476190D01*
X137342857Y-147476190D01*
X138485714Y-147380952D02*
X138390476Y-147333333D01*
X138342857Y-147285714D01*
X138295238Y-147190476D01*
X138295238Y-147142857D01*
X138342857Y-147047619D01*
X138390476Y-147000000D01*
X138485714Y-146952380D01*
X138676190Y-146952380D01*
X138771428Y-147000000D01*
X138819047Y-147047619D01*
X138866666Y-147142857D01*
X138866666Y-147190476D01*
X138819047Y-147285714D01*
X138771428Y-147333333D01*
X138676190Y-147380952D01*
X138485714Y-147380952D01*
X138390476Y-147428571D01*
X138342857Y-147476190D01*
X138295238Y-147571428D01*
X138295238Y-147761904D01*
X138342857Y-147857142D01*
X138390476Y-147904761D01*
X138485714Y-147952380D01*
X138676190Y-147952380D01*
X138771428Y-147904761D01*
X138819047Y-147857142D01*
X138866666Y-147761904D01*
X138866666Y-147571428D01*
X138819047Y-147476190D01*
X138771428Y-147428571D01*
X138676190Y-147380952D01*
%TO.C,TP9*%
X121738095Y-141852380D02*
X122309523Y-141852380D01*
X122023809Y-142852380D02*
X122023809Y-141852380D01*
X122642857Y-142852380D02*
X122642857Y-141852380D01*
X123023809Y-141852380D01*
X123119047Y-141900000D01*
X123166666Y-141947619D01*
X123214285Y-142042857D01*
X123214285Y-142185714D01*
X123166666Y-142280952D01*
X123119047Y-142328571D01*
X123023809Y-142376190D01*
X122642857Y-142376190D01*
X123690476Y-142852380D02*
X123880952Y-142852380D01*
X123976190Y-142804761D01*
X124023809Y-142757142D01*
X124119047Y-142614285D01*
X124166666Y-142423809D01*
X124166666Y-142042857D01*
X124119047Y-141947619D01*
X124071428Y-141900000D01*
X123976190Y-141852380D01*
X123785714Y-141852380D01*
X123690476Y-141900000D01*
X123642857Y-141947619D01*
X123595238Y-142042857D01*
X123595238Y-142280952D01*
X123642857Y-142376190D01*
X123690476Y-142423809D01*
X123785714Y-142471428D01*
X123976190Y-142471428D01*
X124071428Y-142423809D01*
X124119047Y-142376190D01*
X124166666Y-142280952D01*
%TO.C,TP10*%
X132961904Y-90952380D02*
X133533333Y-90952380D01*
X133247619Y-91952380D02*
X133247619Y-90952380D01*
X133866666Y-91952380D02*
X133866666Y-90952380D01*
X134247619Y-90952380D01*
X134342857Y-91000000D01*
X134390476Y-91047619D01*
X134438095Y-91142857D01*
X134438095Y-91285714D01*
X134390476Y-91380952D01*
X134342857Y-91428571D01*
X134247619Y-91476190D01*
X133866666Y-91476190D01*
X135390476Y-91952380D02*
X134819047Y-91952380D01*
X135104761Y-91952380D02*
X135104761Y-90952380D01*
X135009523Y-91095238D01*
X134914285Y-91190476D01*
X134819047Y-91238095D01*
X136009523Y-90952380D02*
X136104761Y-90952380D01*
X136200000Y-91000000D01*
X136247619Y-91047619D01*
X136295238Y-91142857D01*
X136342857Y-91333333D01*
X136342857Y-91571428D01*
X136295238Y-91761904D01*
X136247619Y-91857142D01*
X136200000Y-91904761D01*
X136104761Y-91952380D01*
X136009523Y-91952380D01*
X135914285Y-91904761D01*
X135866666Y-91857142D01*
X135819047Y-91761904D01*
X135771428Y-91571428D01*
X135771428Y-91333333D01*
X135819047Y-91142857D01*
X135866666Y-91047619D01*
X135914285Y-91000000D01*
X136009523Y-90952380D01*
%TO.C,TR1*%
X106538095Y-85852380D02*
X107109523Y-85852380D01*
X106823809Y-86852380D02*
X106823809Y-85852380D01*
X108014285Y-86852380D02*
X107680952Y-86376190D01*
X107442857Y-86852380D02*
X107442857Y-85852380D01*
X107823809Y-85852380D01*
X107919047Y-85900000D01*
X107966666Y-85947619D01*
X108014285Y-86042857D01*
X108014285Y-86185714D01*
X107966666Y-86280952D01*
X107919047Y-86328571D01*
X107823809Y-86376190D01*
X107442857Y-86376190D01*
X108966666Y-86852380D02*
X108395238Y-86852380D01*
X108680952Y-86852380D02*
X108680952Y-85852380D01*
X108585714Y-85995238D01*
X108490476Y-86090476D01*
X108395238Y-86138095D01*
%TO.C,U2*%
X99438095Y-125652380D02*
X99438095Y-126461904D01*
X99485714Y-126557142D01*
X99533333Y-126604761D01*
X99628571Y-126652380D01*
X99819047Y-126652380D01*
X99914285Y-126604761D01*
X99961904Y-126557142D01*
X100009523Y-126461904D01*
X100009523Y-125652380D01*
X100438095Y-125747619D02*
X100485714Y-125700000D01*
X100580952Y-125652380D01*
X100819047Y-125652380D01*
X100914285Y-125700000D01*
X100961904Y-125747619D01*
X101009523Y-125842857D01*
X101009523Y-125938095D01*
X100961904Y-126080952D01*
X100390476Y-126652380D01*
X101009523Y-126652380D01*
%TO.C,U3*%
X129438095Y-125652380D02*
X129438095Y-126461904D01*
X129485714Y-126557142D01*
X129533333Y-126604761D01*
X129628571Y-126652380D01*
X129819047Y-126652380D01*
X129914285Y-126604761D01*
X129961904Y-126557142D01*
X130009523Y-126461904D01*
X130009523Y-125652380D01*
X130390476Y-125652380D02*
X131009523Y-125652380D01*
X130676190Y-126033333D01*
X130819047Y-126033333D01*
X130914285Y-126080952D01*
X130961904Y-126128571D01*
X131009523Y-126223809D01*
X131009523Y-126461904D01*
X130961904Y-126557142D01*
X130914285Y-126604761D01*
X130819047Y-126652380D01*
X130533333Y-126652380D01*
X130438095Y-126604761D01*
X130390476Y-126557142D01*
%TO.C,U4*%
X143638095Y-78852380D02*
X143638095Y-79661904D01*
X143685714Y-79757142D01*
X143733333Y-79804761D01*
X143828571Y-79852380D01*
X144019047Y-79852380D01*
X144114285Y-79804761D01*
X144161904Y-79757142D01*
X144209523Y-79661904D01*
X144209523Y-78852380D01*
X145114285Y-79185714D02*
X145114285Y-79852380D01*
X144876190Y-78804761D02*
X144638095Y-79519047D01*
X145257142Y-79519047D01*
%TO.C,U5*%
X129638095Y-78852380D02*
X129638095Y-79661904D01*
X129685714Y-79757142D01*
X129733333Y-79804761D01*
X129828571Y-79852380D01*
X130019047Y-79852380D01*
X130114285Y-79804761D01*
X130161904Y-79757142D01*
X130209523Y-79661904D01*
X130209523Y-78852380D01*
X131161904Y-78852380D02*
X130685714Y-78852380D01*
X130638095Y-79328571D01*
X130685714Y-79280952D01*
X130780952Y-79233333D01*
X131019047Y-79233333D01*
X131114285Y-79280952D01*
X131161904Y-79328571D01*
X131209523Y-79423809D01*
X131209523Y-79661904D01*
X131161904Y-79757142D01*
X131114285Y-79804761D01*
X131019047Y-79852380D01*
X130780952Y-79852380D01*
X130685714Y-79804761D01*
X130638095Y-79757142D01*
%TD*%
M02*
