%TF.GenerationSoftware,KiCad,Pcbnew,(5.1.10)-1*%
%TF.CreationDate,2021-09-26T04:03:23+09:00*%
%TF.ProjectId,HAS-CT-Board,4841532d-4354-42d4-926f-6172642e6b69,rev?*%
%TF.SameCoordinates,Original*%
%TF.FileFunction,Soldermask,Bot*%
%TF.FilePolarity,Negative*%
%FSLAX46Y46*%
G04 Gerber Fmt 4.6, Leading zero omitted, Abs format (unit mm)*
G04 Created by KiCad (PCBNEW (5.1.10)-1) date 2021-09-26 04:03:23*
%MOMM*%
%LPD*%
G01*
G04 APERTURE LIST*
%ADD10C,2.000000*%
%ADD11O,1.600000X1.600000*%
%ADD12R,1.600000X1.600000*%
%ADD13R,2.000000X2.000000*%
%ADD14C,2.000000*%
%ADD15C,1.600000*%
%ADD16C,1.400000*%
%ADD17R,1.400000X1.400000*%
%ADD18C,3.000000*%
%ADD19O,1.740000X2.190000*%
%ADD20C,2.240000*%
%ADD21C,2.740000*%
%ADD22R,5.000000X3.000000*%
%ADD23R,5.000000X2.000000*%
%ADD24C,1.440000*%
%ADD25R,1.500000X1.500000*%
%ADD26C,1.500000*%
%ADD27C,3.200000*%
G04 APERTURE END LIST*
D10*
%TO.C,H1*%
X57000000Y-55000000D02*
G75*
G03*
X57000000Y-55000000I-2000000J0D01*
G01*
%TO.C,H2*%
X57000000Y-145000000D02*
G75*
G03*
X57000000Y-145000000I-2000000J0D01*
G01*
%TO.C,H3*%
X147000000Y-55000000D02*
G75*
G03*
X147000000Y-55000000I-2000000J0D01*
G01*
%TO.C,H4*%
X147000000Y-145000000D02*
G75*
G03*
X147000000Y-145000000I-2000000J0D01*
G01*
%TD*%
D11*
%TO.C,U1*%
X74000000Y-123620000D03*
X66380000Y-116000000D03*
X71460000Y-123620000D03*
X68920000Y-116000000D03*
X68920000Y-123620000D03*
X71460000Y-116000000D03*
X66380000Y-123620000D03*
D12*
X74000000Y-116000000D03*
%TD*%
D13*
%TO.C,C1*%
X143000000Y-67000000D03*
D14*
X138000000Y-67000000D03*
%TD*%
%TO.C,C2*%
X124000000Y-67000000D03*
D13*
X129000000Y-67000000D03*
%TD*%
%TO.C,C3*%
G36*
G01*
X143225000Y-73750000D02*
X143225000Y-74250000D01*
G75*
G02*
X143000000Y-74475000I-225000J0D01*
G01*
X142550000Y-74475000D01*
G75*
G02*
X142325000Y-74250000I0J225000D01*
G01*
X142325000Y-73750000D01*
G75*
G02*
X142550000Y-73525000I225000J0D01*
G01*
X143000000Y-73525000D01*
G75*
G02*
X143225000Y-73750000I0J-225000D01*
G01*
G37*
G36*
G01*
X141675000Y-73750000D02*
X141675000Y-74250000D01*
G75*
G02*
X141450000Y-74475000I-225000J0D01*
G01*
X141000000Y-74475000D01*
G75*
G02*
X140775000Y-74250000I0J225000D01*
G01*
X140775000Y-73750000D01*
G75*
G02*
X141000000Y-73525000I225000J0D01*
G01*
X141450000Y-73525000D01*
G75*
G02*
X141675000Y-73750000I0J-225000D01*
G01*
G37*
%TD*%
%TO.C,C4*%
G36*
G01*
X129225000Y-73750000D02*
X129225000Y-74250000D01*
G75*
G02*
X129000000Y-74475000I-225000J0D01*
G01*
X128550000Y-74475000D01*
G75*
G02*
X128325000Y-74250000I0J225000D01*
G01*
X128325000Y-73750000D01*
G75*
G02*
X128550000Y-73525000I225000J0D01*
G01*
X129000000Y-73525000D01*
G75*
G02*
X129225000Y-73750000I0J-225000D01*
G01*
G37*
G36*
G01*
X127675000Y-73750000D02*
X127675000Y-74250000D01*
G75*
G02*
X127450000Y-74475000I-225000J0D01*
G01*
X127000000Y-74475000D01*
G75*
G02*
X126775000Y-74250000I0J225000D01*
G01*
X126775000Y-73750000D01*
G75*
G02*
X127000000Y-73525000I225000J0D01*
G01*
X127450000Y-73525000D01*
G75*
G02*
X127675000Y-73750000I0J-225000D01*
G01*
G37*
%TD*%
%TO.C,C8*%
G36*
G01*
X139325000Y-80250000D02*
X139325000Y-79750000D01*
G75*
G02*
X139550000Y-79525000I225000J0D01*
G01*
X140000000Y-79525000D01*
G75*
G02*
X140225000Y-79750000I0J-225000D01*
G01*
X140225000Y-80250000D01*
G75*
G02*
X140000000Y-80475000I-225000J0D01*
G01*
X139550000Y-80475000D01*
G75*
G02*
X139325000Y-80250000I0J225000D01*
G01*
G37*
G36*
G01*
X137775000Y-80250000D02*
X137775000Y-79750000D01*
G75*
G02*
X138000000Y-79525000I225000J0D01*
G01*
X138450000Y-79525000D01*
G75*
G02*
X138675000Y-79750000I0J-225000D01*
G01*
X138675000Y-80250000D01*
G75*
G02*
X138450000Y-80475000I-225000J0D01*
G01*
X138000000Y-80475000D01*
G75*
G02*
X137775000Y-80250000I0J225000D01*
G01*
G37*
%TD*%
%TO.C,C9*%
G36*
G01*
X126225000Y-79750000D02*
X126225000Y-80250000D01*
G75*
G02*
X126000000Y-80475000I-225000J0D01*
G01*
X125550000Y-80475000D01*
G75*
G02*
X125325000Y-80250000I0J225000D01*
G01*
X125325000Y-79750000D01*
G75*
G02*
X125550000Y-79525000I225000J0D01*
G01*
X126000000Y-79525000D01*
G75*
G02*
X126225000Y-79750000I0J-225000D01*
G01*
G37*
G36*
G01*
X124675000Y-79750000D02*
X124675000Y-80250000D01*
G75*
G02*
X124450000Y-80475000I-225000J0D01*
G01*
X124000000Y-80475000D01*
G75*
G02*
X123775000Y-80250000I0J225000D01*
G01*
X123775000Y-79750000D01*
G75*
G02*
X124000000Y-79525000I225000J0D01*
G01*
X124450000Y-79525000D01*
G75*
G02*
X124675000Y-79750000I0J-225000D01*
G01*
G37*
%TD*%
D12*
%TO.C,C10*%
X142000000Y-85000000D03*
D15*
X139500000Y-85000000D03*
%TD*%
%TO.C,C11*%
X125500000Y-85000000D03*
D12*
X128000000Y-85000000D03*
%TD*%
D16*
%TO.C,D1*%
X123920000Y-57000000D03*
X129000000Y-54460000D03*
X123920000Y-54460000D03*
D17*
X129000000Y-57000000D03*
%TD*%
D18*
%TO.C,F1*%
X79000000Y-82700000D03*
X79000000Y-76000000D03*
X79000000Y-66000000D03*
X79000000Y-59300000D03*
%TD*%
D19*
%TO.C,J1*%
X73620000Y-100000000D03*
X71080000Y-100000000D03*
X68540000Y-100000000D03*
G36*
G01*
X65130000Y-100845001D02*
X65130000Y-99154999D01*
G75*
G02*
X65379999Y-98905000I249999J0D01*
G01*
X66620001Y-98905000D01*
G75*
G02*
X66870000Y-99154999I0J-249999D01*
G01*
X66870000Y-100845001D01*
G75*
G02*
X66620001Y-101095000I-249999J0D01*
G01*
X65379999Y-101095000D01*
G75*
G02*
X65130000Y-100845001I0J249999D01*
G01*
G37*
%TD*%
%TO.C,J2*%
G36*
G01*
X95130000Y-100845001D02*
X95130000Y-99154999D01*
G75*
G02*
X95379999Y-98905000I249999J0D01*
G01*
X96620001Y-98905000D01*
G75*
G02*
X96870000Y-99154999I0J-249999D01*
G01*
X96870000Y-100845001D01*
G75*
G02*
X96620001Y-101095000I-249999J0D01*
G01*
X95379999Y-101095000D01*
G75*
G02*
X95130000Y-100845001I0J249999D01*
G01*
G37*
X98540000Y-100000000D03*
X101080000Y-100000000D03*
X103620000Y-100000000D03*
%TD*%
%TO.C,J3*%
G36*
G01*
X125130000Y-100845001D02*
X125130000Y-99154999D01*
G75*
G02*
X125379999Y-98905000I249999J0D01*
G01*
X126620001Y-98905000D01*
G75*
G02*
X126870000Y-99154999I0J-249999D01*
G01*
X126870000Y-100845001D01*
G75*
G02*
X126620001Y-101095000I-249999J0D01*
G01*
X125379999Y-101095000D01*
G75*
G02*
X125130000Y-100845001I0J249999D01*
G01*
G37*
X128540000Y-100000000D03*
X131080000Y-100000000D03*
X133620000Y-100000000D03*
%TD*%
D20*
%TO.C,J4*%
X70000000Y-145000000D03*
D21*
X67460000Y-142460000D03*
X72540000Y-142460000D03*
X72540000Y-147540000D03*
X67460000Y-147540000D03*
%TD*%
%TO.C,J5*%
X97460000Y-147540000D03*
X102540000Y-147540000D03*
X102540000Y-142460000D03*
X97460000Y-142460000D03*
D20*
X100000000Y-145000000D03*
%TD*%
D21*
%TO.C,J6*%
X127460000Y-147540000D03*
X132540000Y-147540000D03*
X132540000Y-142460000D03*
X127460000Y-142460000D03*
D20*
X130000000Y-145000000D03*
%TD*%
D22*
%TO.C,P1*%
X70100000Y-76500000D03*
X70100000Y-65500000D03*
D23*
X61000000Y-77700000D03*
X61000000Y-64300000D03*
%TD*%
D24*
%TO.C,RV1*%
X57000000Y-130460000D03*
X57000000Y-133000000D03*
X57000000Y-135540000D03*
%TD*%
%TO.C,RV2*%
X87000000Y-135540000D03*
X87000000Y-133000000D03*
X87000000Y-130460000D03*
%TD*%
%TO.C,RV3*%
X117000000Y-135540000D03*
X117000000Y-133000000D03*
X117000000Y-130460000D03*
%TD*%
D14*
%TO.C,TP1*%
X62000000Y-116000000D03*
%TD*%
%TO.C,TP2*%
X92000000Y-116000000D03*
%TD*%
%TO.C,TP3*%
X122000000Y-116000000D03*
%TD*%
%TO.C,TP4*%
X77000000Y-145000000D03*
%TD*%
%TO.C,TP5*%
X63000000Y-145000000D03*
%TD*%
%TO.C,TP6*%
X107000000Y-145000000D03*
%TD*%
%TO.C,TP7*%
X93000000Y-145000000D03*
%TD*%
%TO.C,TP8*%
X137000000Y-145000000D03*
%TD*%
%TO.C,TP9*%
X123000000Y-145000000D03*
%TD*%
%TO.C,TP10*%
X134000000Y-89000000D03*
%TD*%
%TO.C,TR1*%
X112000000Y-64000000D03*
X112000000Y-70000000D03*
X112000000Y-76000000D03*
X88000000Y-64000000D03*
X88000000Y-76000000D03*
%TD*%
D12*
%TO.C,U2*%
X104000000Y-116000000D03*
D11*
X96380000Y-123620000D03*
X101460000Y-116000000D03*
X98920000Y-123620000D03*
X98920000Y-116000000D03*
X101460000Y-123620000D03*
X96380000Y-116000000D03*
X104000000Y-123620000D03*
%TD*%
D12*
%TO.C,U3*%
X134000000Y-116000000D03*
D11*
X126380000Y-123620000D03*
X131460000Y-116000000D03*
X128920000Y-123620000D03*
X128920000Y-116000000D03*
X131460000Y-123620000D03*
X126380000Y-116000000D03*
X134000000Y-123620000D03*
%TD*%
D25*
%TO.C,U4*%
X143000000Y-77000000D03*
D26*
X137920000Y-77000000D03*
X140460000Y-77000000D03*
%TD*%
%TO.C,U5*%
X126460000Y-77000000D03*
X123920000Y-77000000D03*
D25*
X129000000Y-77000000D03*
%TD*%
D27*
%TO.C,H1*%
X55000000Y-55000000D03*
%TD*%
%TO.C,H2*%
X55000000Y-145000000D03*
%TD*%
%TO.C,H3*%
X145000000Y-55000000D03*
%TD*%
%TO.C,H4*%
X145000000Y-145000000D03*
%TD*%
M02*
